<?xml version="1.0" encoding="utf-8"?>
<svg width="51px" height="61px" viewBox="0 0 51 61" version="1.1" xmlns:xlink="http://www.w3.org/1999/xlink" xmlns="http://www.w3.org/2000/svg">
  <desc>Created with Lunacy</desc>
  <defs>
    <linearGradient x1="0.7815191" y1="0.2387014" x2="0" y2="1" id="gradient_1">
      <stop offset="0" stop-color="#2F3283" />
      <stop offset="1" stop-color="#484BA7" stop-opacity="0" />
    </linearGradient>
  </defs>
  <g id="4-confused">
    <g id="confused">
      <path d="M14.6048 2.1906L16.7667 2.1906C20.6507 -2.78936 35.162 0.165091 30.4351 16.8364L0.936324 16.8364C-3.79059 0.165091 10.7207 -2.78936 14.6048 2.1906Z" transform="translate(4.429639 44.16356)" id="Path" fill="url(#gradient_1)" stroke="none" />
      <path d="M0 0.288621C4.71107 1.4954 9.10731 6.55994 6.19352 16.8364L10.6493 16.8364C14.5108 3.21769 5.5341 -1.24758 0 0.288621Z" transform="translate(24.21535 44.16358)" id="Path" fill="#2B2D83" stroke="none" />
      <path d="M4.45583 9.96921L4.45583 9.96921C6.9167 9.96921 8.91165 7.97456 8.91165 5.51407L8.91165 0L0 0L0 5.51407C-3.3867e-15 7.97456 1.99496 9.96921 4.45583 9.96921Z" transform="translate(15.6595 40.11846)" id="Path" fill="#FF805B" stroke="none" />
      <path d="M3.3867e-15 4.39569C2.77235 5.02845 5.93221 5.19751 8.91165 4.90276L8.91165 0L0 0L0 4.39569L3.3867e-15 4.39569Z" transform="translate(15.6595 40.11858)" id="Path" fill="#C45E40" stroke="none" />
      <g id="Group" transform="translate(0.953271 23.35156)">
        <path d="M3.76494 7.52885L8.74424 7.52885L8.74424 0L3.76494 0C1.68562 0 0 1.68536 0 3.76437L0 3.76437C8.46675e-16 5.84349 1.68562 7.52885 3.76494 7.52885Z" transform="translate(0.08353037 0.1090137)" id="Path" fill="#FF805B" stroke="none" />
        <path d="M4.97929 7.52885L0 7.52885L0 0L4.97929 0C7.05861 0 8.74423 1.68536 8.74423 3.76437L8.74423 3.76437C8.74435 5.84349 7.05861 7.52885 4.97929 7.52885Z" transform="translate(29.49635 0.1090137)" id="Path" fill="#FF805B" stroke="none" />
      </g>
      <path d="M6.66176 29.4977C5.73327 25.479 4.36116 20.1225 3.7426 17.5098C-0.234325 14.0573 -1.05712 6.76006 1.34751 1.57327C1.69414 0.825547 2.64944 0.602397 3.28908 1.12209C4.86949 2.40607 7.98716 3.62368 13.8152 1.4863C25.165 -2.676 34.7226 2.9279 35.2712 5.79717C35.8849 5.79717 38.8654 6.2194 38.8654 9.1499C38.8654 11.6426 34.7682 24.9185 33.0017 29.4978L6.66176 29.4978L6.66176 29.4977Z" transform="translate(0.05356076 9.735782E-05)" id="Path" fill="#40428B" stroke="none" />
      <path d="M14.4827 5.79706C14.0516 3.54221 8.05633 -0.401586 0 0.0331578C6.0802 0.402851 10.4189 3.77739 10.7643 5.79718C11.3133 5.79718 13.9796 6.21942 13.9796 9.14992C13.9796 11.6426 10.3144 24.9185 8.73399 29.4978L12.2131 29.4978C13.9796 24.9185 18.0768 11.6426 18.0768 9.14992C18.0769 6.2193 15.0964 5.79706 14.4827 5.79706Z" transform="translate(20.84208 8.242382E-05)" id="Path" fill="#36387D" stroke="none" />
      <path d="M0 21.8088C0 31.7232 28.0818 31.7232 28.0818 21.8088C28.0818 16.1278 27.3219 6.50913 25.6662 2.77014C25.2731 1.88242 24.4184 0.971592 23.7188 0.553527C23.1271 0.199918 22.5065 1.69309e-15 21.8753 1.69309e-15C21.1692 1.69309e-15 20.4802 0.226129 19.7885 0.553527C17.9962 1.40026 16.1882 2.92002 14.0408 2.92002C11.8935 2.92002 10.0855 1.40014 8.29322 0.553527C7.60162 0.226129 6.91253 0 6.20639 0C5.57521 0 4.95463 0.199799 4.36288 0.553527C3.66199 0.971592 2.80619 1.88397 2.41154 2.77407C0.762617 6.49257 0 16.0201 0 21.8088Z" transform="translate(6.074481 12.76497)" id="Path" fill="#FFA084" stroke="none" />
      <path d="M12.5593 2.77014C12.1662 1.88242 11.3115 0.971592 10.6119 0.553527C10.0202 0.199918 9.39961 0 8.76842 0C8.25497 0 7.75045 0.12057 7.24748 0.311672C7.38428 0.381607 7.51964 0.462147 7.65334 0.553408C8.26557 0.971473 9.01377 1.8823 9.35778 2.77002C10.8069 6.50901 11.472 16.1277 11.472 21.8087C11.472 26.546 5.86047 29.0194 0 29.2296C7.31755 29.4593 14.9749 26.9858 14.9749 21.8087C14.9749 16.1279 14.2149 6.50925 12.5593 2.77014Z" transform="translate(19.18136 12.76497)" id="Path" fill="#FF8C6B" stroke="none" />
      <g id="Group" transform="translate(12.39252 24.30469)">
        <path d="M0.920621 3.27315C0.412051 3.27315 0 2.86104 0 2.35267L0 0.92048C0 0.411988 0.41217 0 0.920621 0C1.42907 0 1.84124 0.412107 1.84124 0.92048L1.84124 2.35267C1.84124 2.86104 1.42907 3.27315 0.920621 3.27315Z" transform="translate(13.5088 0.01417773)" id="Path" fill="#243B5D" stroke="none" />
        <path d="M0.920622 3.27315C0.412171 3.27315 0 2.86104 0 2.35267L0 0.92048C0 0.411988 0.412171 0 0.920622 0C1.42907 0 1.84124 0.412107 1.84124 0.92048L1.84124 2.35267C1.84136 2.86104 1.42907 3.27315 0.920622 3.27315Z" transform="translate(0.09568458 0.01417773)" id="Path" fill="#243B5D" stroke="none" />
      </g>
      <path d="M3.22012 2.53251C2.19821 2.53251 1.17631 2.24359 0.379968 1.66576C-0.0316069 1.36708 -0.123002 0.791507 0.17561 0.379995C0.474223 -0.0316357 1.05 -0.123017 1.46145 0.175669C2.41473 0.867519 4.0254 0.867519 4.97867 0.175669C5.39 -0.122778 5.96578 -0.0315165 6.26463 0.379995C6.56324 0.791507 6.47173 1.36708 6.06027 1.66576C5.26393 2.24359 4.24203 2.53251 3.22012 2.53251Z" transform="translate(23.52521 20.88947)" id="Path" fill="#243B5D" stroke="none" />
      <path d="M5.51883 2.53227C5.33139 2.53227 5.14217 2.47509 4.9788 2.35666C4.02553 1.66481 2.41474 1.66493 1.46147 2.35666C1.04978 2.65499 0.474121 2.56361 0.175628 2.15233C-0.123103 1.74082 -0.0314701 1.16525 0.379985 0.866569C1.97266 -0.288856 4.46761 -0.288856 6.06041 0.866569C6.47186 1.16525 6.56338 1.74082 6.26477 2.15233C6.0846 2.40039 5.80374 2.53216 5.51883 2.53227Z" transform="translate(10.26519 20.8897)" id="Path" fill="#243B5D" stroke="none" />
      <path d="M9.57285 0.0435121C4.98404 -0.418158 0.781547 2.84498 0.0979325 7.40521C-0.605105 12.0955 2.55368 16.4122 7.11246 17.2561C6.76249 18.1173 6.22747 18.895 5.54588 19.5298C5.22379 19.8298 5.4552 20.3691 5.8943 20.3383C6.17742 20.3185 6.46245 20.2795 6.74807 20.2203C8.62887 19.8305 10.141 18.6476 11.0113 17.094C14.3312 16.1804 16.9298 13.3344 17.3506 9.70439C17.9091 4.88563 14.4175 0.530916 9.57285 0.0435121Z" transform="translate(33.53728 1.324937)" id="Path" fill="#FFFFFF" stroke="none" />
      <path d="M4.0178 0.0434932C3.44441 -0.0141709 2.87709 -0.0136943 2.32193 0.0401573C2.33396 0.041587 2.346 0.0419444 2.35803 0.0434932C6.36273 0.530897 9.24887 4.88561 8.78725 9.70437C8.43943 13.3343 6.29135 16.1804 3.54712 17.0939C2.82764 18.6475 1.57778 19.8305 0.0229977 20.2203C0.0153715 20.2222 0.00762617 20.2238 0 20.2256C0.0860327 20.302 0.20257 20.3479 0.339245 20.3383C0.622367 20.3185 0.907395 20.2795 1.19302 20.2203C3.07382 19.8305 4.58595 18.6475 5.45628 17.0939C8.77617 16.1804 11.3748 13.3343 11.7955 9.70437C12.354 4.88561 8.86244 0.530897 4.0178 0.0434932Z" transform="translate(39.09233 1.324956)" id="Path" fill="#E5E6FF" stroke="none" />
      <path d="M0 0.92048L0 5.4819L1.84124 5.4819L1.84124 0.92048C1.84124 0.412107 1.42907 0 0.920622 0C0.412171 0 0 0.411988 0 0.92048ZM23.5203 0.92048L23.5203 5.4819L21.6791 5.4819L21.6791 0.92048C21.6791 0.412107 22.0911 0 22.5997 0C23.1081 0 23.5203 0.411988 23.5203 0.92048Z" transform="translate(8.355302 55.5181)" id="Shape" fill="#000000" fill-opacity="0.129411772" fill-rule="evenodd" stroke="none" />
      <path d="M1.46673 0.840418C1.46673 0.465482 1.24223 0.143445 0.920502 0C0.854488 1.61138 0.565409 3.40802 0 5.40184L1.46661 5.40184L1.46661 0.840418L1.46673 0.840418Z" transform="translate(30.40887 55.59816)" id="Path" fill="#2B2D83" stroke="none" />
      <g id="Group" transform="translate(39.32243 4.289063)">
        <path d="M0.920622 1.96368C0.412051 1.96368 0 1.55157 0 1.0432L0 0.92048C0 0.411988 0.412171 0 0.920622 0C1.42907 0 1.84124 0.412107 1.84124 0.92048L1.84124 1.0432C1.84124 1.55157 1.42907 1.96368 0.920622 1.96368Z" transform="translate(1.539056 9.416636)" id="Path" fill="#4548A1" stroke="none" />
        <path d="M2.35454 8.75767C1.84597 8.75767 1.43392 8.34556 1.43392 7.83719L1.43392 6.21402C1.43392 5.43412 2.06856 4.79958 2.84858 4.79958L3.19175 4.79958C3.6044 4.79958 3.98738 4.63398 4.27014 4.33315C4.55255 4.03267 4.69387 3.63891 4.66813 3.22442C4.62285 2.49564 4.01657 1.88957 3.28792 1.84418C2.62313 1.80177 2.00708 2.21268 1.79188 2.84031C1.62696 3.32129 1.10266 3.57732 0.622332 3.41255C0.141406 3.24766 -0.114904 2.72403 0.0500114 2.24318C0.533439 0.833748 1.91282 -0.0880431 3.40207 0.00667366C5.06815 0.110088 6.40249 1.44422 6.50592 3.11017C6.56359 4.03708 6.24604 4.91908 5.61199 5.59377C5.00571 6.23856 4.15813 6.61707 3.27517 6.63947L3.27517 7.83707C3.27517 8.34556 2.863 8.75767 2.35454 8.75767Z" transform="translate(0.1051335 0.0427697)" id="Path" fill="#4548A1" stroke="none" />
      </g>
      <path d="M5.89235 2.86853C5.65677 2.86853 5.42107 2.77858 5.24138 2.59892C4.22972 1.58741 2.58354 1.58718 1.57177 2.59892C1.21214 2.95825 0.629219 2.95837 0.269716 2.5988C-0.0899054 2.23935 -0.0899054 1.65652 0.269716 1.29695C1.99943 -0.432376 4.81384 -0.432257 6.54331 1.29695C6.90293 1.6564 6.90293 2.23923 6.54343 2.5988C6.36362 2.77858 6.12792 2.86853 5.89235 2.86853Z" transform="translate(20.16687 32.23411)" id="Path" fill="#243B5D" stroke="none" />
    </g>
  </g>
</svg>