<?xml version="1.0" encoding="utf-8"?>
<svg width="53px" height="59px" viewBox="0 0 53 59" version="1.1" xmlns:xlink="http://www.w3.org/1999/xlink" xmlns="http://www.w3.org/2000/svg">
  <desc>Created with Lunacy</desc>
  <defs>
    <linearGradient x1="0.7815191" y1="0.2387014" x2="0" y2="1" id="gradient_1">
      <stop offset="0" stop-color="#2F3283" />
      <stop offset="1" stop-color="#484BA7" stop-opacity="0" />
    </linearGradient>
  </defs>
  <g id="4-phone" transform="translate(0.5 0.5)">
    <g id="phone-call">
      <path d="M1.2381 11.4953C1.07962 11.4953 0.918667 11.4663 0.765143 11.4035C0.302095 11.2174 0 10.7752 0 10.287L0 1.8045C0 1.42025 0.18819 1.05775 0.505143 0.830586C2.24343 -0.416414 4.60571 -0.242414 6.12609 1.239C6.93333 2.03167 7.37905 3.09017 7.37905 4.22117C7.37905 5.33525 6.94076 6.39859 6.14343 7.20817L2.11467 11.1401C1.87695 11.3721 1.56 11.4953 1.2381 11.4953L1.2381 11.4953Z" transform="translate(44.57143 7.282164)" id="Path" fill="#FF805B" stroke="none" />
      <path d="M22.5556 0L20.4286 0L6.80952 0L4.68248 0C2.09981 0 0 2.23542 0 4.98558L0 38.5168C0 41.2646 2.09981 43.5 4.68248 43.5L22.5581 43.5C25.1383 43.5 27.2381 41.2646 27.2381 38.5168L27.2381 4.98558C27.2381 2.23542 25.1383 1.07322e-15 22.5556 0Z" transform="translate(19.80952 0)" id="Path" fill="#25272A" stroke="none" />
      <path d="M20.4286 35.0417C20.4286 36.0422 19.6659 36.8542 18.725 36.8542L1.70114 36.8542C0.76019 36.8542 0 36.0422 0 35.0417L0 1.8125C0 0.812 0.762667 0 1.70114 0L2.55295 0C3.4939 0 4.2541 0.812 4.2541 1.8125C4.2541 2.813 5.01676 3.625 5.95771 3.625L14.4709 3.625C15.4118 3.625 16.1745 2.813 16.1745 1.8125C16.1745 0.812 16.9371 0 17.8756 0L18.7274 0C19.6684 0 20.431 0.812 20.431 1.8125L20.431 35.0417L20.4286 35.0417Z" transform="translate(23.21428 3.020833)" id="Path" fill="#FFFFFF" stroke="none" />
      <path d="M10.5238 8.45833L4.33333 8.45833C1.94381 8.45833 0 6.56125 0 4.22917C0 1.89708 1.94381 0 4.33333 0L10.5238 0C10.8482 0 11.1503 0.03625 11.4499 0.111167C13.3937 0.473667 14.8571 2.21367 14.8571 4.22917C14.8571 6.24467 13.3937 7.98467 11.3781 8.36167C11.1503 8.42208 10.8482 8.45833 10.5238 8.45833Z" transform="translate(34.66667 18.91667)" id="Path" fill="#FF9070" stroke="none" />
      <path d="M10.5238 8.45833L4.33333 8.45833C1.94381 8.45833 0 6.56125 0 4.22917C0 1.89708 1.94381 0 4.33333 0L10.5238 0C10.8482 0 11.1503 0.03625 11.4499 0.111167C13.3937 0.473667 14.8571 2.21367 14.8571 4.22917C14.8571 6.24467 13.3937 7.98467 11.3781 8.36166C11.1503 8.42208 10.8482 8.45833 10.5238 8.45833Z" transform="translate(34.66667 25.5625)" id="Path" fill="#FFBBA7" stroke="none" />
      <path d="M8.04762 8.45833L4.33333 8.45833C1.94381 8.45833 0 6.56125 0 4.22917C0 1.89708 1.94381 0 4.33333 0L8.04762 0C8.372 0 8.6741 0.03625 8.97372 0.111167C10.9175 0.473667 12.381 2.21367 12.381 4.22917C12.381 6.24467 10.9175 7.98467 8.90191 8.36166C8.6741 8.42208 8.372 8.45833 8.04762 8.45833Z" transform="translate(37.14286 32.20833)" id="Path" fill="#FF805B" stroke="none" />
      <path d="M13.6199 37.0071C13.3029 37.0071 12.9835 36.8887 12.7433 36.6543L0.362352 24.5709C-0.0734575 24.1456 -0.122981 23.4689 0.250923 22.988L2.23188 20.4263C3.18521 19.1648 3.71511 17.6085 3.71511 16.0546C3.71511 14.5611 4.06673 13.1063 4.75759 11.7263L9.73969 2.00409C10.2324 1.07367 11.0521 0.418752 12.05 0.148085C13.3549 -0.224082 14.7168 0.114252 15.685 1.06158C16.8587 2.2095 17.5075 3.732 17.5075 5.34875C17.5075 6.27917 17.2822 7.20958 16.8563 8.04092L14.2934 13.0096C14.0334 13.5147 14.1523 14.1188 14.5782 14.4451C18.3593 17.3378 20.6572 21.5452 21.0014 26.1321L29.7151 26.1321C30.1831 26.1321 30.6115 26.3907 30.822 26.7991C31.03 27.2075 30.9854 27.6981 30.7056 28.063L29.6656 29.4163C27.7589 31.9007 24.7231 33.3821 21.5437 33.3821C19.8921 33.3821 18.2578 33.9137 16.938 34.8804L14.3627 36.7654C14.1399 36.9273 13.8799 37.0071 13.6199 37.0071L13.6199 37.0071Z" transform="translate(8.665838 14.95125)" id="Path" fill="#FF805B" stroke="none" />
      <path d="M9.31048 3.04016L11.1057 3.04016C11.388 2.67525 11.2914 1.09958 11.0834 0.691166C10.873 0.28275 9.308 0 8.84 0L0 0.6235C0.106476 1.38958 0.190667 2.18225 0.225333 3.04016L9.31048 3.04016Z" transform="translate(29.68952 40.45984)" id="Path" fill="#25272A" stroke="none" />
      <path d="M8.30514 0.353438C7.82229 -0.117813 7.03733 -0.117813 6.55448 0.353438L0 6.75035L0 22.9589L21.5602 22.9589L25.636 18.9811C26.1189 18.5099 26.1189 17.7438 25.636 17.2725L8.30514 0.353438Z" transform="translate(0 35.04106)" id="Path" fill="url(#gradient_1)" stroke="none" />
    </g>
    <g id="check-2" transform="translate(29 11)">
      <g id="check">
        <path d="M3.82918 7.81677C3.73372 7.91533 3.60349 7.97032 3.46821 7.97032C3.33292 7.97032 3.20269 7.91533 3.10723 7.81677L0.224383 4.85716C-0.0747942 4.55007 -0.0747942 4.0521 0.224383 3.74558L0.585358 3.37496C0.884628 3.06786 1.3692 3.06786 1.66838 3.37496L3.46821 5.22251L8.3316 0.23032C8.63087 -0.0767733 9.11591 -0.0767733 9.41462 0.23032L9.7756 0.600943C10.0748 0.908037 10.0748 1.40591 9.7756 1.71253L3.82918 7.81677Z" transform="translate(0 0.009980533)" id="Path" fill="#2BA85A" stroke="none" />
      </g>
    </g>
  </g>
</svg>