<?xml version="1.0" encoding="utf-8"?>
<svg width="19px" height="24px" viewBox="0 0 19 24" version="1.1" xmlns:xlink="http://www.w3.org/1999/xlink" xmlns="http://www.w3.org/2000/svg">
  <desc>Created with Lunacy</desc>
  <g id="Address-icoin" transform="translate(0.5 0.5)">
    <path d="M0 9.66667C0 4.345 4.01077 0 9 0C13.9892 0 18 4.345 18 9.66667C18 10.8082 17.6344 12.0301 16.9625 13.3276C16.2188 14.7636 15.115 16.2643 13.7452 17.7951C12.8465 18.7994 11.8864 19.7575 10.9263 20.6389C10.7582 20.7932 10.596 20.9397 10.4407 21.0779L9.99627 21.4671C9.92803 21.5259 9.86732 21.5777 9.81463 21.6223L9 22.2922L8.31889 21.7345L7.78705 21.2789C7.56473 21.0843 7.32586 20.8704 7.07371 20.6389C6.11362 19.7575 5.15349 18.7994 4.2548 17.7951C2.88499 16.2643 1.78122 14.7636 1.03751 13.3276C0.365565 12.0301 0 10.8082 0 9.66667ZM16 9.66667C16 5.4154 12.8473 2 9 2C5.15268 2 2 5.4154 2 9.66667C2 10.4463 2.2768 11.3716 2.81347 12.4078C3.46865 13.6729 4.47831 15.0457 5.7452 16.4614C6.59651 17.4128 7.51138 18.3257 8.42629 19.1656C8.58632 19.3125 8.74053 19.4518 8.88793 19.583L9 19.682L9.11207 19.583L9.57371 19.1656C10.4886 18.3257 11.4035 17.4128 12.2548 16.4614C13.5217 15.0457 14.5314 13.6729 15.1865 12.4078C15.7232 11.3716 16 10.4463 16 9.66667Z" id="Oval" fill="#FFFFFF" fill-rule="evenodd" stroke="none" />
    <path d="M2 4C3.10457 4 4 3.10457 4 2C4 0.895431 3.10457 0 2 0C0.895431 0 0 0.895431 0 2C0 3.10457 0.895431 4 2 4Z" transform="translate(7 7)" id="Oval" fill="#FFFFFF" stroke="none" />
  </g>
</svg>