<?xml version="1.0" encoding="utf-8"?>
<svg width="28px" height="34px" viewBox="0 0 28 34" version="1.1" xmlns:xlink="http://www.w3.org/1999/xlink" xmlns="http://www.w3.org/2000/svg">
  <desc>Created with Lunacy</desc>
  <g id="9-apple">
    <path d="M27.8247 15.1216C27.7108 14.9478 27.5257 14.8319 27.3178 14.8042C24.5837 14.4519 22.6568 11.9795 23.0139 9.282C23.2662 7.37654 24.6185 5.78983 26.4779 5.21761C26.8555 5.09821 27.0635 4.69944 26.9425 4.3269C26.9237 4.26893 26.8974 4.21354 26.8642 4.16214C25.6095 1.92811 23.3786 0.391664 20.8205 9.4369e-16C19.5314 0.0606953 18.261 0.329176 17.0599 0.79475C16.1972 1.13727 15.2863 1.34705 14.359 1.41664C13.4317 1.34705 12.5207 1.13727 11.658 0.79475C10.4569 0.329176 9.18649 0.0606953 7.89741 0C5.21662 0 0 3.74989 0 10.625C0 17.1586 4.83034 25.5 8.61538 25.5C10.0596 25.5128 11.4865 25.1885 12.7795 24.5536C13.2665 24.2887 13.8047 24.1284 14.359 24.0833C14.9132 24.1284 15.4516 24.2887 15.9385 24.5536C17.2316 25.1885 18.6584 25.5128 20.1027 25.5C23.1037 25.5 26.491 20.417 27.9096 15.7066C27.969 15.5088 27.938 15.2951 27.8247 15.1216Z" transform="translate(0.03069231 8.499933)" id="Path" fill="#FFFFFF" stroke="none" />
    <path d="M0.717904 8.5C5.07756 8.49529 8.61061 5.00962 8.61532 0.708355C8.61532 0.317156 8.29392 0 7.89741 0C3.53776 0.00471484 0.00471155 3.49038 1.05677e-08 7.79164C-6.72971e-05 8.18284 0.321394 8.5 0.717904 8.5Z" transform="translate(12.9537 0)" id="Path" fill="#FFFFFF" stroke="none" />
  </g>
</svg>