<?xml version="1.0" encoding="utf-8"?>
<svg width="2492px" height="2251px" viewBox="0 0 2492 2251" version="1.1" xmlns:xlink="http://www.w3.org/1999/xlink" xmlns="http://www.w3.org/2000/svg">
  <desc>Created with Lunacy</desc>
  <g id="Group" transform="translate(0.5 -1549.34)">
    <path d="M527 1170.82C835.5 1469.32 1156.8 845.632 1156.8 554.578C1156.8 263.524 935.408 0 644.354 0C353.3 0 2.72415e-12 352.762 2.72415e-12 643.816C2.72415e-12 934.87 218.5 872.316 527 1170.82Z" transform="matrix(0.8660253 0.5000002 -0.5000002 0.8660253 1778.171 1039.858)" id="1-Orange-bubble" fill="#FF805B" stroke="none" />
    <path d="M0 0L26.001 0Q26.6392 0 27.2767 0.0313169Q27.9142 0.0626339 28.5493 0.125192Q29.1845 0.187751 29.8158 0.2814Q30.4472 0.375049 31.0732 0.499563Q31.6991 0.624078 32.3182 0.779157Q32.9373 0.934237 33.5481 1.11951Q34.1589 1.30478 34.7598 1.5198Q35.3607 1.73481 35.9504 1.97906Q36.54 2.2233 37.117 2.49618Q37.694 2.76906 38.2568 3.06993Q38.8197 3.37079 39.3672 3.69891Q39.9146 4.02703 40.4453 4.38162Q40.9759 4.73621 41.4886 5.11641Q42.0012 5.49661 42.4946 5.9015Q42.9879 6.3064 43.4608 6.73501Q43.9338 7.16363 44.3851 7.61493Q44.8364 8.06623 45.265 8.53914Q45.6936 9.01204 46.0985 9.50541Q46.5034 9.99877 46.8836 10.5114Q47.2638 11.0241 47.6184 11.5547Q47.973 12.0854 48.3011 12.6328Q48.6292 13.1803 48.9301 13.7432Q49.2309 14.306 49.5038 14.883Q49.7767 15.46 50.0209 16.0496Q50.2652 16.6393 50.4802 17.2402Q50.6952 17.8411 50.8805 18.4519Q51.0658 19.0626 51.2208 19.6818Q51.3759 20.3009 51.5004 20.9268Q51.6249 21.5528 51.7186 22.1842Q51.8122 22.8155 51.8748 23.4507Q51.9374 24.0858 51.9687 24.7233Q52 25.3608 52 25.999L52 26.001Q52 26.6392 51.9687 27.2767Q51.9374 27.9142 51.8748 28.5493Q51.8122 29.1845 51.7186 29.8158Q51.6249 30.4472 51.5004 31.0732Q51.3759 31.6991 51.2208 32.3182Q51.0658 32.9373 50.8805 33.5481Q50.6952 34.1589 50.4802 34.7598Q50.2652 35.3607 50.0209 35.9504Q49.7767 36.54 49.5038 37.117Q49.2309 37.694 48.9301 38.2568Q48.6292 38.8197 48.3011 39.3672Q47.973 39.9146 47.6184 40.4453Q47.2638 40.9759 46.8836 41.4886Q46.5034 42.0012 46.0985 42.4946Q45.6936 42.9879 45.265 43.4608Q44.8364 43.9338 44.3851 44.3851Q43.9338 44.8364 43.4609 45.265Q42.9879 45.6936 42.4946 46.0985Q42.0012 46.5034 41.4886 46.8836Q40.9759 47.2638 40.4453 47.6184Q39.9146 47.973 39.3671 48.3011Q38.8197 48.6292 38.2568 48.9301Q37.694 49.2309 37.117 49.5038Q36.54 49.7767 35.9504 50.0209Q35.3607 50.2652 34.7598 50.4802Q34.1589 50.6952 33.5481 50.8805Q32.9373 51.0658 32.3182 51.2208Q31.6991 51.3759 31.0731 51.5004Q30.4472 51.6249 29.8158 51.7186Q29.1845 51.8122 28.5493 51.8748Q27.9142 51.9374 27.2767 51.9687Q26.6392 52 26.001 52L25.999 52Q25.3608 52 24.7233 51.9687Q24.0858 51.9374 23.4507 51.8748Q22.8155 51.8122 22.1842 51.7186Q21.5528 51.6249 20.9268 51.5004Q20.3009 51.3759 19.6818 51.2208Q19.0626 51.0658 18.4519 50.8805Q17.8411 50.6952 17.2402 50.4802Q16.6393 50.2652 16.0496 50.0209Q15.46 49.7767 14.883 49.5038Q14.306 49.2309 13.7432 48.9301Q13.1803 48.6292 12.6328 48.3011Q12.0854 47.973 11.5547 47.6184Q11.0241 47.2638 10.5114 46.8836Q9.99877 46.5034 9.50541 46.0985Q9.01204 45.6936 8.53914 45.265Q8.06623 44.8364 7.61493 44.3851Q7.16363 43.9338 6.73501 43.4609Q6.3064 42.9879 5.9015 42.4946Q5.49661 42.0012 5.11641 41.4886Q4.73621 40.9759 4.38162 40.4453Q4.02703 39.9146 3.69891 39.3671Q3.37079 38.8197 3.06993 38.2568Q2.76906 37.694 2.49618 37.117Q2.2233 36.54 1.97906 35.9504Q1.73481 35.3607 1.5198 34.7598Q1.30478 34.1589 1.11951 33.5481Q0.934237 32.9373 0.779157 32.3182Q0.624078 31.6991 0.499563 31.0731Q0.375049 30.4472 0.2814 29.8158Q0.187751 29.1845 0.125192 28.5493Q0.0626339 27.9142 0.0313169 27.2767Q0 26.6392 0 26.001L0 0Z" transform="matrix(0.5 -0.8660254 0.8660254 0.5 1879.541 2424.688)" id="1-Rectangle" fill="#FFFFFF" fill-opacity="0.102448" stroke="none" />
    <g id="1-Circle-with-orange" transform="matrix(0.8660253 0.5000002 -0.5000002 0.8660253 1401.352 0)" opacity="0.1">
      <path d="M974.42 1948.74C1544.83 2500.66 1948.78 1512.54 1948.76 974.413C1948.73 436.283 1512.47 0.0234876 974.335 0C436.202 -0.0232436 -0.0233073 436.199 0 974.329C0.0232463 1512.46 404.006 1396.82 974.42 1948.74Z" transform="matrix(0.8660254 0.5 -0.5 0.8660254 1055.584 0.0002441406)" id="Oval-Copy-3_7" fill="none" stroke="#B2B4FF" stroke-opacity="-1.06581408E-16" stroke-width="1" />
      <path d="M899.678 1799.28C1426.34 2308.87 1799.31 1396.53 1799.29 899.673C1799.27 402.816 1396.47 0.0190339 899.609 0C402.75 -0.0190644 -0.0190976 402.748 0 899.604C0.0189756 1396.46 373.017 1289.69 899.678 1799.28Z" transform="matrix(0.9063078 0.4226182 -0.4226182 0.9063078 968.2895 137.8381)" id="Oval-Copy-3_6" fill="none" stroke="#B2B4FF" stroke-opacity="0.202857" stroke-width="1" />
      <path d="M825.115 1650.17C1308.13 2117.52 1650.19 1280.79 1650.18 825.111C1650.16 369.43 1280.75 0.0145193 825.062 0C369.378 -0.0147023 -0.0146437 369.376 0 825.058C0.0145827 1280.74 342.102 1182.81 825.115 1650.17Z" transform="matrix(0.9396927 0.3420201 -0.3420201 0.9396927 902.4924 279.207)" id="Oval-Copy-3_5" fill="none" stroke="#B2B4FF" stroke-opacity="0.365714" stroke-width="1" />
      <path d="M750.848 1501.65C1190.39 1926.94 1501.67 1165.52 1501.66 750.845C1501.65 336.175 1165.48 0.0104319 750.811 0C336.139 -0.0104014 -0.0103727 336.138 0 750.808C0.0103117 1165.48 311.31 1076.36 750.848 1501.65Z" transform="matrix(0.9659258 0.258819 -0.258819 0.9659258 857.7971 421.334)" id="Oval-Copy-3_4" fill="none" stroke="#B2B4FF" stroke-opacity="0.498571" stroke-width="1" />
      <path d="M676.313 1352.6C1072.22 1735.67 1352.61 1049.82 1352.6 676.312C1352.6 302.801 1049.8 0.00637499 676.291 0C302.779 -0.00637499 -0.00640673 302.778 0 676.289C0.00634571 1049.8 280.407 969.528 676.313 1352.6Z" transform="matrix(0.9848077 0.1736481 -0.1736481 0.9848077 833.8873 562.3776)" id="Oval-Copy-3_3" fill="none" stroke="#B2B4FF" stroke-opacity="0.646926165" stroke-width="1" />
      <path d="M601.561 1203.11C953.708 1543.84 1203.11 933.79 1203.11 601.56C1203.11 269.331 933.781 0.00286722 601.551 0C269.32 -0.00286722 -0.0029288 269.32 0 601.55C0.00286779 933.779 249.414 862.378 601.561 1203.11Z" transform="matrix(0.9961947 0.08715566 -0.08715566 0.9961947 830.4184 699.7119)" id="Oval-Copy-3_2" fill="none" stroke="#B2B4FF" stroke-opacity="0.780226946" stroke-width="1" />
    </g>
    <g id="1-Circle" transform="translate(598.5575 2034.672)" opacity="0.098218">
      <path d="M192 384C298.039 384 384 298.039 384 192C384 85.9613 298.039 0 192 0C85.9613 0 0 85.9613 0 192C0 243.691 2.15294e-12 384 2.15294e-12 384C2.15294e-12 384 137.652 384 192 384Z" id="Oval_4" fill="none" stroke="#B2B4FF" stroke-width="1" />
      <path d="M142.5 285C221.201 285 285 221.201 285 142.5C285 63.7994 221.201 0 142.5 0C63.7994 0 0 63.7994 0 142.5C0 180.864 1.59789e-12 285 1.59789e-12 285C1.59789e-12 285 102.164 285 142.5 285Z" transform="translate(49.5 49.5)" id="Oval_3" fill="none" stroke="#B2B4FF" stroke-width="1" />
      <path d="M93 186C144.362 186 186 144.362 186 93C186 41.6375 144.362 0 93 0C41.6375 0 0 41.6375 0 93C0 118.038 1.04283e-12 186 1.04283e-12 186C1.04283e-12 186 66.6753 186 93 186Z" transform="translate(99 99)" id="Oval_2" fill="none" stroke="#B2B4FF" stroke-width="1" />
      <path d="M43.5 87C67.5244 87 87 67.5244 87 43.5C87 19.4756 67.5244 0 43.5 0C19.4756 0 0 19.4756 0 43.5C0 55.2112 4.87776e-13 87 4.87776e-13 87C4.87776e-13 87 31.1868 87 43.5 87Z" transform="translate(148.5 148.5)" id="Oval_1" fill="none" stroke="#B2B4FF" stroke-width="1" />
    </g>
  </g>
</svg>