<?xml version="1.0" encoding="utf-8"?>
<svg width="498px" height="498px" viewBox="0 0 498 498" version="1.1" xmlns:xlink="http://www.w3.org/1999/xlink" xmlns="http://www.w3.org/2000/svg">
  <desc>Created with Lunacy</desc>
  <defs>
    <linearGradient x1="1.2451582" y1="0.5" x2="-0.210539535" y2="0.5" id="gradient_1">
      <stop offset="0" stop-color="#FFFFFF" stop-opacity="0" />
      <stop offset="1" stop-color="#B2B4FF" />
    </linearGradient>
  </defs>
  <g id="Group" transform="translate(0.5 0.5)">
    <path d="M187 374C290.277 374 374 290.277 374 187C374 83.7228 290.277 0 187 0C83.7228 0 0 83.7228 0 187C0 290.277 83.7228 374 187 374Z" transform="translate(63 61.5)" id="01-circle-bg" fill="none" stroke="url(#gradient_1)" stroke-opacity="0.3" stroke-width="1" />
    <path d="M248.5 497C385.743 497 497 385.743 497 248.5C497 111.257 385.743 0 248.5 0C111.257 0 0 111.257 0 248.5C0 385.743 111.257 497 248.5 497Z" id="01-circke-bg-2" fill="none" stroke="url(#gradient_1)" stroke-opacity="0.3" stroke-width="1" />
  </g>
</svg>