<?xml version="1.0" encoding="utf-8"?>
<svg width="100px" height="128px" viewBox="0 0 100 128" version="1.1" xmlns:xlink="http://www.w3.org/1999/xlink" xmlns="http://www.w3.org/2000/svg">
  <desc>Created with Lunacy</desc>
  <defs>
    <linearGradient x1="0.136456251" y1="0.836400032" x2="0.76785" y2="-0.215849549" id="gradient_1">
      <stop offset="0" stop-color="#FF805B" />
      <stop offset="1" stop-color="#FFDED4" />
    </linearGradient>
  </defs>
  <g id="Group">
    <path d="M50 100C77.6142 100 100 77.6142 100 50C100 22.3858 77.6142 0 50 0C22.3858 0 0 22.3858 0 50C0 64.1851 4.17028e-13 100 4.17028e-13 100C4.17028e-13 100 36.5709 100 50 100Z" id="04-circle" fill="#FF764E" fill-opacity="0.103864394" stroke="none" />
    <g id="hot-drink" transform="translate(12 28)">
      <path d="M4.17589 0L68.9021 0C76.9741 0 83.5177 6.52918 83.5177 14.5833C83.5177 22.6375 76.9741 29.1667 68.9021 29.1667L64.3676 29.1667C58.3734 43.9569 42.7153 52.4342 27.0207 49.3864C11.3261 46.3385 -0.00259421 32.6204 0 16.6667L0 4.16667C0 1.86548 1.86961 0 4.17589 0ZM66.5438 20.8333L68.9021 20.8333C72.3615 20.8333 75.166 18.0351 75.166 14.5833C75.166 11.1316 72.3615 8.33333 68.9021 8.33333L66.8142 8.33333L66.8142 16.6667C66.8111 18.0598 66.7208 19.4514 66.5438 20.8333Z" transform="translate(0.3517722 41.66667)" id="Shape" fill="url(#gradient_1)" fill-rule="evenodd" stroke="none" />
      <path d="M4.17589 8.33334C6.48216 8.33334 8.35177 6.46785 8.35177 4.16667C8.35177 1.86548 6.48216 0 4.17589 0C1.86961 0 0 1.86548 0 4.16667C0 6.46785 1.86961 8.33334 4.17589 8.33334Z" transform="translate(46.28653 62.5)" id="Oval" fill="#FFFFFF" stroke="none" />
      <path d="M8.35177 25L0 25L0 20.8333C0.00776697 13.933 5.61204 8.34108 12.5277 8.33333L20.8794 8.33333C23.1846 8.33075 25.0527 6.46678 25.0553 4.16667L25.0553 0L33.4071 0L33.4071 4.16667C33.3993 11.067 27.795 16.6589 20.8794 16.6667L12.5277 16.6667C10.2225 16.6693 8.35436 18.5332 8.35177 20.8333L8.35177 25Z" transform="translate(12.87943 0)" id="Path" fill="#FF805B" stroke="none" />
      <path d="M8.35177 25L0 25L0 20.8333C0.00776697 13.933 5.61204 8.34108 12.5277 8.33333L20.8794 8.33333C23.1846 8.33075 25.0527 6.46678 25.0553 4.16667L25.0553 0L33.4071 0L33.4071 4.16667C33.3993 11.067 27.795 16.6589 20.8794 16.6667L12.5277 16.6667C10.2225 16.6693 8.35436 18.5332 8.35177 20.8333L8.35177 25Z" transform="translate(25.40709 12.5)" id="Path" fill="#FFFFFF" stroke="none" />
      <path d="M50.9901 12.5C57.9057 12.4922 63.51 6.90035 63.5177 0L4.08105e-15 0C0.00776697 6.90035 5.61204 12.4922 12.5277 12.5L50.9901 12.5Z" transform="translate(2 87.5)" id="Path" fill="#FFDACF" stroke="none" />
      <path d="M59.3418 8.33333L20.8794 8.33333C15.573 8.32666 10.8444 4.98997 9.07003 0L-2.14805e-14 0C0.00776697 6.90035 5.61204 12.4922 12.5277 12.5L50.9901 12.5C54.5727 12.5008 57.9833 10.9674 60.3561 8.28906C60.0204 8.31563 59.6837 8.33333 59.3418 8.33333Z" transform="translate(2 87.5)" id="Path" fill="#FFB49F" stroke="none" />
    </g>
  </g>
</svg>