<?xml version="1.0" encoding="utf-8"?>
<svg width="21px" height="25px" viewBox="0 0 21 25" version="1.1" xmlns:xlink="http://www.w3.org/1999/xlink" xmlns="http://www.w3.org/2000/svg">
  <desc>Created with Lunacy</desc>
  <g id="Executive-summary-icon" transform="translate(1 1)">
    <path d="M2.999 0L14.001 0Q14.1483 0 14.295 0.014441Q14.4416 0.028882 14.5861 0.0576249Q14.7306 0.0863679 14.8716 0.129136Q15.0126 0.171904 15.1487 0.228285Q15.2848 0.284667 15.4147 0.354118Q15.5447 0.42357 15.6672 0.505423Q15.7897 0.587276 15.9035 0.680742Q16.0174 0.774208 16.1216 0.878387Q16.2258 0.982566 16.3193 1.09645Q16.4127 1.21034 16.4946 1.33284Q16.5764 1.45535 16.6459 1.58528Q16.7153 1.71522 16.7717 1.85133Q16.8281 1.98745 16.8709 2.12844Q16.9136 2.26942 16.9424 2.41392Q16.9711 2.55842 16.9856 2.70505Q17 2.85167 17 2.999L17 18.001Q17 18.1483 16.9856 18.295Q16.9711 18.4416 16.9424 18.5861Q16.9136 18.7306 16.8709 18.8716Q16.8281 19.0126 16.7717 19.1487Q16.7153 19.2848 16.6459 19.4147Q16.5764 19.5447 16.4946 19.6672Q16.4127 19.7897 16.3193 19.9035Q16.2258 20.0174 16.1216 20.1216Q16.0174 20.2258 15.9035 20.3193Q15.7897 20.4127 15.6672 20.4946Q15.5447 20.5764 15.4147 20.6459Q15.2848 20.7153 15.1487 20.7717Q15.0126 20.8281 14.8716 20.8709Q14.7306 20.9136 14.5861 20.9424Q14.4416 20.9711 14.295 20.9856Q14.1483 21 14.001 21L2.999 21Q2.85167 21 2.70505 20.9856Q2.55842 20.9711 2.41392 20.9424Q2.26942 20.9136 2.12844 20.8709Q1.98745 20.8281 1.85133 20.7717Q1.71522 20.7153 1.58528 20.6459Q1.45535 20.5764 1.33284 20.4946Q1.21034 20.4127 1.09645 20.3193Q0.982566 20.2258 0.878387 20.1216Q0.774208 20.0174 0.680742 19.9035Q0.587276 19.7897 0.505423 19.6672Q0.42357 19.5447 0.354118 19.4147Q0.284667 19.2848 0.228285 19.1487Q0.171904 19.0126 0.129136 18.8716Q0.0863679 18.7306 0.0576249 18.5861Q0.028882 18.4416 0.014441 18.295Q0 18.1483 0 18.001L0 2.999Q0 2.85167 0.014441 2.70505Q0.028882 2.55842 0.0576249 2.41392Q0.0863679 2.26942 0.129136 2.12844Q0.171904 1.98745 0.228285 1.85133Q0.284667 1.71522 0.354118 1.58528Q0.42357 1.45535 0.505423 1.33284Q0.587276 1.21034 0.680742 1.09645Q0.774208 0.982566 0.878387 0.878387Q0.982566 0.774208 1.09645 0.680742Q1.21034 0.587276 1.33284 0.505423Q1.45535 0.42357 1.58528 0.354118Q1.71522 0.284667 1.85133 0.228285Q1.98745 0.171904 2.12844 0.129136Q2.26942 0.0863679 2.41392 0.0576249Q2.55842 0.028882 2.70505 0.014441Q2.85167 0 2.999 0L2.999 0Z" transform="translate(1 1)" id="Rectangle-Copy-14" fill="#FFB09A" stroke="none" />
    <path d="M4 0L15 0C17.2091 0 19 1.79086 19 4L19 19C19 21.2091 17.2091 23 15 23L4 23C1.79086 23 0 21.2091 0 19L0 4C0 1.79086 1.79086 0 4 0ZM15 2L4 2C2.89543 2 2 2.89543 2 4L2 19C2 20.1046 2.89543 21 4 21L15 21C16.1046 21 17 20.1046 17 19L17 4C17 2.89543 16.1046 2 15 2Z" id="Rectangle-Copy-16" fill="#FFD6CA" fill-rule="evenodd" stroke="none" />
    <path d="M0.999 0L6.001 0Q6.09939 0 6.19589 0.0191955Q6.2924 0.038391 6.3833 0.0760443Q6.4742 0.113698 6.55601 0.168362Q6.63782 0.223026 6.7074 0.2926Q6.77697 0.362175 6.83164 0.443985Q6.8863 0.525796 6.92395 0.616699Q6.96161 0.707602 6.9808 0.804105Q7 0.900607 7 0.999L7 1.001Q7 1.09939 6.9808 1.1959Q6.96161 1.2924 6.92395 1.3833Q6.8863 1.4742 6.83164 1.55601Q6.77697 1.63783 6.7074 1.7074Q6.63782 1.77697 6.55601 1.83164Q6.4742 1.8863 6.3833 1.92396Q6.2924 1.96161 6.19589 1.9808Q6.09939 2 6.001 2L0.999 2Q0.900607 2 0.804105 1.9808Q0.707602 1.96161 0.616699 1.92396Q0.525796 1.8863 0.443985 1.83164Q0.362175 1.77697 0.2926 1.7074Q0.223026 1.63783 0.168362 1.55601Q0.113698 1.4742 0.0760443 1.3833Q0.038391 1.2924 0.0191955 1.1959Q0 1.09939 0 1.001L0 0.999Q0 0.900607 0.0191955 0.804105Q0.038391 0.707602 0.0760443 0.616699Q0.113698 0.525796 0.168362 0.443985Q0.223026 0.362175 0.2926 0.2926Q0.362175 0.223026 0.443985 0.168362Q0.525796 0.113698 0.616699 0.0760443Q0.707602 0.038391 0.804105 0.0191955Q0.900607 0 0.999 0L0.999 0Z" transform="translate(6 7)" id="Rectangle" fill="#FFFFFF" stroke="none" />
    <path d="M0.999 0L3.001 0Q3.09939 0 3.19589 0.0191955Q3.2924 0.038391 3.3833 0.0760443Q3.4742 0.113698 3.55601 0.168362Q3.63783 0.223026 3.7074 0.2926Q3.77697 0.362175 3.83164 0.443985Q3.8863 0.525796 3.92396 0.616699Q3.96161 0.707602 3.9808 0.804105Q4 0.900607 4 0.999L4 1.001Q4 1.09939 3.9808 1.1959Q3.96161 1.2924 3.92396 1.3833Q3.8863 1.4742 3.83164 1.55601Q3.77697 1.63783 3.7074 1.7074Q3.63783 1.77697 3.55601 1.83164Q3.4742 1.8863 3.3833 1.92396Q3.2924 1.96161 3.19589 1.9808Q3.09939 2 3.001 2L0.999 2Q0.900607 2 0.804105 1.9808Q0.707602 1.96161 0.616699 1.92396Q0.525796 1.8863 0.443985 1.83164Q0.362175 1.77697 0.2926 1.7074Q0.223026 1.63783 0.168362 1.55601Q0.113698 1.4742 0.0760443 1.3833Q0.038391 1.2924 0.0191955 1.1959Q0 1.09939 0 1.001L0 0.999Q0 0.900607 0.0191955 0.804105Q0.038391 0.707602 0.0760443 0.616699Q0.113698 0.525796 0.168362 0.443985Q0.223026 0.362175 0.2926 0.2926Q0.362175 0.223026 0.443985 0.168362Q0.525796 0.113698 0.616699 0.0760443Q0.707602 0.038391 0.804105 0.0191955Q0.900607 0 0.999 0Z" transform="translate(6 11)" id="Rectangle-Copy-15" fill="#FFFFFF" stroke="none" />
  </g>
</svg>