<?xml version="1.0" encoding="utf-8"?>
<svg width="105px" height="85px" viewBox="0 0 105 85" version="1.1" xmlns:xlink="http://www.w3.org/1999/xlink" xmlns="http://www.w3.org/2000/svg">
  <desc>Created with Lunacy</desc>
  <g id="5-save-time" transform="translate(0.5 0.5)">
    <path d="M42 84C65.196 84 84 65.196 84 42C84 18.804 65.196 0 42 0C18.804 0 0 18.804 0 42C0 65.196 18.804 84 42 84Z" transform="translate(20 0)" id="Oval-Copy-25" fill="none" stroke="#898CD8" stroke-opacity="0.250372022" stroke-width="1" />
    <path d="M23 46C35.7025 46 46 35.7025 46 23C46 10.2975 35.7025 0 23 0C10.2975 0 0 10.2975 0 23C0 35.7025 10.2975 46 23 46Z" transform="translate(39 19)" id="Oval-Copy-26" fill="none" stroke="#898CD8" stroke-opacity="0.250372022" stroke-width="1" />
    <g id="Group-8" transform="translate(0 10)">
      <g id="friendship-2" transform="translate(31 0)">
        <g id="friendship">
          <path d="M29.4594 32.8633L3.44975 32.8633C1.54448 32.8633 0 31.321 0 29.4184L0 3.44492C0 1.54232 1.54448 0 3.44975 0L29.4594 0C31.3647 0 32.9092 1.54232 32.9092 3.44492L32.9092 29.4182C32.9092 31.3208 31.3647 32.8633 29.4594 32.8633Z" transform="translate(0.08360925 5.546769)" id="Path" fill="#FF805B" stroke="none" />
          <path d="M3.42479 0L0 0C1.90526 0 3.44975 1.54232 3.44975 3.44506L3.44975 29.4184C3.44975 31.321 1.90526 32.8633 0 32.8633L3.42479 32.8633C5.33006 32.8633 6.87454 31.321 6.87454 29.4184L6.87454 3.44492C6.87454 1.54232 5.33006 0 3.42479 0Z" transform="translate(26.11825 5.546769)" id="Path" fill="#DF5B35" stroke="none" />
          <path d="M29.4594 32.8632L3.44975 32.8632C1.54448 32.8632 0 31.3208 0 29.4182L0 3.44492C0 1.54232 1.54448 0 3.44975 0L29.4594 0C31.3647 0 32.9092 1.54232 32.9092 3.44492L32.9092 29.4182C32.9092 31.3208 31.3647 32.8632 29.4594 32.8632Z" transform="translate(0.08360925 12.051)" id="Path" fill="#5E61C9" stroke="none" />
          <path d="M2.5 5C3.88071 5 5 3.88071 5 2.5C5 1.11929 3.88071 0 2.5 0C1.11929 0 0 1.11929 0 2.5C0 3.88071 1.11929 5 2.5 5Z" transform="translate(5 17)" id="Oval" fill="#FFFFFF" fill-opacity="0.196428567" stroke="none" />
          <path d="M2.5 5C3.88071 5 5 3.88071 5 2.5C5 1.11929 3.88071 0 2.5 0C1.11929 0 0 1.11929 0 2.5C0 3.88071 1.11929 5 2.5 5Z" transform="translate(5 25)" id="Oval-Copy-18" fill="#FFFFFF" fill-opacity="0.196428567" stroke="none" />
          <path d="M2.5 5C3.88071 5 5 3.88071 5 2.5C5 1.11929 3.88071 0 2.5 0C1.11929 0 0 1.11929 0 2.5C0 3.88071 1.11929 5 2.5 5Z" transform="translate(13 17)" id="Oval-Copy-14" fill="#FFFFFF" fill-opacity="0.196428567" stroke="none" />
          <path d="M2.5 5C3.88071 5 5 3.88071 5 2.5C5 1.11929 3.88071 0 2.5 0C1.11929 0 0 1.11929 0 2.5C0 3.88071 1.11929 5 2.5 5Z" transform="translate(13 25)" id="Oval-Copy-19" fill="#FFFFFF" fill-opacity="0.196428567" stroke="none" />
          <path d="M2.5 5C3.88071 5 5 3.88071 5 2.5C5 1.11929 3.88071 0 2.5 0C1.11929 0 0 1.11929 0 2.5C0 3.88071 1.11929 5 2.5 5Z" transform="translate(21 17)" id="Oval-Copy-17" fill="#FFFFFF" fill-opacity="0.196428567" stroke="none" />
          <path d="M2.5 5C3.88071 5 5 3.88071 5 2.5C5 1.11929 3.88071 0 2.5 0C1.11929 0 0 1.11929 0 2.5C0 3.88071 1.11929 5 2.5 5Z" transform="translate(21 25)" id="Oval-Copy-20" fill="#FFFFFF" fill-opacity="0.196428567" stroke="none" />
          <path d="M2.5 5C3.88071 5 5 3.88071 5 2.5C5 1.11929 3.88071 0 2.5 0C1.11929 0 0 1.11929 0 2.5C0 3.88071 1.11929 5 2.5 5Z" transform="translate(5 33)" id="Oval-Copy-23" fill="#FFFFFF" fill-opacity="0.196428567" stroke="none" />
          <path d="M2.5 5C3.88071 5 5 3.88071 5 2.5C5 1.11929 3.88071 0 2.5 0C1.11929 0 0 1.11929 0 2.5C0 3.88071 1.11929 5 2.5 5Z" transform="translate(13 33)" id="Oval-Copy-22" fill="#FFFFFF" fill-opacity="0.196428567" stroke="none" />
          <path d="M3.37792 0L0 0C1.90526 0 3.44975 1.54232 3.44975 3.44492L3.44975 29.4182C3.44975 31.3208 1.90526 32.8632 0 32.8632L3.37792 32.8632C5.28319 32.8632 6.82767 31.3208 6.82767 29.4182L6.82767 3.44492C6.82767 1.54232 5.28319 0 3.37792 0Z" transform="translate(26.16512 12.051)" id="Path" fill="#373A8C" stroke="none" />
          <path d="M1.04089 8.81128C0.466021 8.81128 0 8.34591 0 7.77185L0 1.03943C0 0.465231 0.466021 0 1.04089 0C1.61575 0 2.08177 0.465369 2.08177 1.03943L2.08177 7.77185C2.08177 8.34605 1.61575 8.81128 1.04089 8.81128Z" transform="translate(8.085278 0)" id="Path" fill="#D4D6FF" stroke="none" />
          <path d="M1.04089 8.81128C0.466021 8.81128 0 8.34591 0 7.77185L0 1.03943C0 0.465231 0.466021 0 1.04089 0C1.61575 0 2.08177 0.465369 2.08177 1.03943L2.08177 7.77185C2.08177 8.34605 1.61575 8.81128 1.04089 8.81128Z" transform="translate(22.90935 0)" id="Path" fill="#D4D6FF" stroke="none" />
        </g>
      </g>
      <g id="clock-2" transform="translate(0 18)">
        <g id="clock">
          <path d="M26 52C40.3594 52 52 40.3594 52 26C52 11.6406 40.3594 0 26 0C11.6406 0 0 11.6406 0 26C0 40.3594 11.6406 52 26 52Z" id="Oval" fill="#FF805B" stroke="none" />
          <path d="M26 26C26 11.7193 14.2807 0 0 0L0 52C14.2807 52 26 40.2807 26 26Z" transform="translate(26 0)" id="Path" fill="#DF5B35" stroke="none" />
          <path d="M19.8047 0C8.88469 0 0 8.88469 0 19.8047C0 30.7247 8.88469 39.7109 19.8047 39.7109C30.7247 39.7109 39.6094 30.7247 39.6094 19.8047C39.6094 8.88469 30.7247 0 19.8047 0Z" transform="translate(6.195313 6.195313)" id="Path" fill="#FFFFFF" stroke="none" />
          <path d="M19.8047 19.8047C19.8047 8.88469 10.92 0 0 0L0 39.7109C10.92 39.7109 19.8047 30.7247 19.8047 19.8047Z" transform="translate(26 6.195313)" id="Path" fill="#E2E3FF" stroke="none" />
          <path d="M1.52344 0C0.681383 0 0 0.681383 0 1.52344L0 16.7578C0 17.5999 0.681383 18.2813 1.52344 18.2813C2.36549 18.2813 3.04688 17.5999 3.04688 16.7578L3.04688 1.52344C3.04688 0.681383 2.36549 0 1.52344 0Z" transform="translate(24.47656 12.28906)" id="Path" fill="#5D5E91" stroke="none" />
          <path d="M1.52344 16.7578L1.52344 1.52344C1.52344 0.681383 0.842055 0 0 0L0 18.2813C0.842055 18.2813 1.52344 17.5999 1.52344 16.7578Z" transform="translate(26 12.28906)" id="Path" fill="#313269" stroke="none" />
          <path d="M13.7109 0L4.57031 0L1.52344 0C0.681383 0 0 0.681383 0 1.52344C0 2.36549 0.681383 3.04688 1.52344 3.04688L4.57031 3.04688L13.7109 3.04688C14.553 3.04688 15.2344 2.36549 15.2344 1.52344C15.2344 0.681383 14.553 0 13.7109 0Z" transform="translate(21.42969 24.47656)" id="Path" fill="#5D5E91" stroke="none" />
          <path d="M10.6641 1.52344C10.6641 0.681383 9.98268 0 9.14063 0L0 0L0 3.04688L9.14063 3.04688C9.98268 3.04688 10.6641 2.36549 10.6641 1.52344Z" transform="translate(26 24.47656)" id="Path" fill="#313269" stroke="none" />
        </g>
      </g>
    </g>
  </g>
</svg>