<?xml version="1.0" encoding="utf-8"?>
<svg width="105px" height="85px" viewBox="0 0 105 85" version="1.1" xmlns:xlink="http://www.w3.org/1999/xlink" xmlns="http://www.w3.org/2000/svg">
  <desc>Created with Lunacy</desc>
  <g id="5-personalized" transform="translate(0.5 0.5)">
    <path d="M42 84C65.196 84 84 65.196 84 42C84 18.804 65.196 0 42 0C18.804 0 0 18.804 0 42C0 65.196 18.804 84 42 84Z" transform="translate(20 0)" id="Oval" fill="none" stroke="#898CD8" stroke-opacity="0.250372022" stroke-width="1" />
    <path d="M23 46C35.7025 46 46 35.7025 46 23C46 10.2975 35.7025 0 23 0C10.2975 0 0 10.2975 0 23C0 35.7025 10.2975 46 23 46Z" transform="translate(39 19)" id="Oval-Copy-29" fill="none" stroke="#898CD8" stroke-opacity="0.250372022" stroke-width="1" />
    <g id="gift-2" transform="translate(0 15)">
      <g id="gift">
        <g id="Group" transform="translate(0 8.586135)">
          <path d="M0 2.7468L0 10.3488C0 11.8658 1.21243 13.0956 2.70816 13.0956L54.1995 13.0956C55.6952 13.0956 56.9076 11.8658 56.9076 10.3488L56.9076 2.7468C56.9076 1.22973 55.6952 0 54.1995 0L2.70816 0C1.21243 1.35574e-15 0 1.22973 0 2.7468Z" transform="translate(0.05662376 0.05266162)" id="Path" fill="#FF805B" stroke="none" />
          <path d="M45.9332 38.2314L2.89722 38.2314C1.29708 38.2314 0 36.9158 0 35.2928L0 0L48.8304 0L48.8304 35.2928C48.8306 36.9158 47.5333 38.2314 45.9332 38.2314Z" transform="translate(4.095159 13.14823)" id="Path" fill="#FF805B" stroke="none" />
        </g>
        <path d="M0 0L48.83 0L48.83 4.42281L0 4.42281L0 0Z" transform="translate(4.095346 21.73437)" id="Rectangle" fill="#F36E47" stroke="none" />
        <path d="M1.41089 25.6475C0.631515 25.6475 0 25.0068 0 24.2165L0 1.43102C0 0.640716 0.631515 0 1.41089 0C2.19027 0 2.82178 0.640716 2.82178 1.43102L2.82178 24.2165C2.82178 25.0068 2.19027 25.6475 1.41089 25.6475Z" transform="translate(46.35417 7.207774)" id="Path" fill="#383B93" stroke="none" />
        <path d="M0 0L8.19954 0L8.19954 38.2312L0 38.2312L0 0Z" transform="translate(24.4103 21.73437)" id="Rectangle" fill="#FF987A" stroke="none" />
        <path d="M0 0L8.19954 0L8.19954 4.42281L0 4.42281L0 0Z" transform="translate(24.4103 21.73437)" id="Rectangle" fill="#FF734A" stroke="none" />
        <path d="M0 0L8.19954 0L8.19954 13.0948L0 13.0948L0 0Z" transform="translate(24.4103 8.63956)" id="Rectangle" fill="#FF987A" stroke="none" />
        <g id="Group" transform="translate(7.712871 0)">
          <path d="M0 5.72182L0 11.5558L13.1813 16.9284C16.2736 18.1889 19.6424 15.8796 19.6424 12.4993L19.6424 4.77811C19.6424 1.39784 16.2738 -0.911446 13.1813 0.348999L0 5.72182Z" transform="translate(21.92525 -1.988197E-05)" id="Path" fill="#2B2E87" stroke="none" />
          <path d="M19.6424 5.72182L19.6424 11.5558L6.46113 16.9284C3.36883 18.1889 0 15.8796 0 12.4993L0 4.77811C0 1.39784 3.36864 -0.911446 6.46113 0.348999L19.6424 5.72182Z" transform="translate(0.02746535 -1.988197E-05)" id="Path" fill="#2B2E87" stroke="none" />
        </g>
        <path d="M16.219 2.86204L1.41089 2.86204C0.631703 2.86204 0 2.22133 0 1.43102C0 0.640716 0.631703 0 1.41089 0L16.219 0C16.9984 0 17.6299 0.640716 17.6299 1.43102C17.6299 2.22133 16.9984 2.86204 16.219 2.86204Z" transform="translate(19.69547 7.207774)" id="Path" fill="#FFFFFF" stroke="none" />
        <path d="M4.03063 0L2.21077 0C0.989881 0 0 1.00401 0 2.24232L0 7.81205C0 9.05036 0.989881 10.0544 2.21077 10.0544L4.03063 10.0544C5.25171 10.0544 6.24141 9.05055 6.24141 7.81205L6.24141 2.24232C6.24141 1.00401 5.25152 0 4.03063 0Z" transform="translate(25.38983 3.611519)" id="Path" fill="#2B2E87" stroke="none" />
        <path d="M11.3981 23.2119L2.30878 23.2119C1.03371 23.2119 0 22.1635 0 20.8702L0 2.34173C0 1.04846 1.03371 0 2.30878 0L11.3981 0C12.6732 0 13.7069 1.04846 13.7069 2.34173L13.7069 20.8702C13.7069 22.1637 12.6732 23.2119 11.3981 23.2119Z" transform="translate(40.9117 31.4243)" id="Path" fill="#E8E9FF" stroke="none" />
        <g id="Group" transform="translate(43.83168 35.10775)">
          <path d="M1.41089 8.07535C0.631515 8.07535 0 7.43464 0 6.64433L0 1.43102C0 0.640716 0.631515 0 1.41089 0C2.19027 0 2.82178 0.640716 2.82178 1.43102L2.82178 6.64433C2.82178 7.43464 2.19027 8.07535 1.41089 8.07535Z" transform="translate(5.000762 0.1144818)" id="Path" fill="#383B93" stroke="none" />
          <path d="M1.41089 15.6163C0.631515 15.6163 0 14.9756 0 14.1852L0 1.43102C0 0.640716 0.631515 0 1.41089 0C2.19027 0 2.82178 0.640716 2.82178 1.43102L2.82178 14.1852C2.82178 14.9756 2.19027 15.6163 1.41089 15.6163Z" transform="translate(0.04420792 0.1144818)" id="Path" fill="#383B93" stroke="none" />
        </g>
      </g>
    </g>
  </g>
</svg>