<?xml version="1.0" encoding="utf-8"?>
<svg width="105px" height="85px" viewBox="0 0 105 85" version="1.1" xmlns:xlink="http://www.w3.org/1999/xlink" xmlns="http://www.w3.org/2000/svg">
  <desc>Created with Lunacy</desc>
  <g id="5-enjoy" transform="translate(0.5 0.5)">
    <path d="M42 84C65.196 84 84 65.196 84 42C84 18.804 65.196 0 42 0C18.804 0 0 18.804 0 42C0 65.196 18.804 84 42 84Z" transform="translate(20 0)" id="Oval-Copy-21" fill="none" stroke="#898CD8" stroke-opacity="0.250372022" stroke-width="1" />
    <path d="M23 46C35.7025 46 46 35.7025 46 23C46 10.2975 35.7025 0 23 0C10.2975 0 0 10.2975 0 23C0 35.7025 10.2975 46 23 46Z" transform="translate(39 19)" id="Oval-Copy-27" fill="none" stroke="#898CD8" stroke-opacity="0.250372022" stroke-width="1" />
    <g id="friendship-(1)-2" transform="translate(0 15)">
      <g id="friendship-(1)">
        <path d="M59.5156 7.07547L59.5156 20.3217L35.5748 20.3217L35.5748 7.94955L0 7.94955L0 0L52.4646 0C56.3583 0.000127417 59.5156 3.16759 59.5156 7.07547Z" transform="translate(4.979102 39.70162)" id="Path" fill="#5E61C9" stroke="none" />
        <g id="Group" transform="translate(5.839844 39.6267)">
          <path d="M3.01818 0L0 0C3.89391 0 7.05047 3.1681 7.05047 7.07623L7.05047 20.3215L10.0687 20.3215L10.0687 7.07623C10.0687 3.1681 6.91209 0 3.01818 0Z" transform="translate(48.58572 0.07453897)" id="Path" fill="#373A8C" stroke="none" />
          <path d="M28.6757 7.95031L28.6757 7.07623C28.6757 3.16822 25.5192 0.000254834 21.6256 0L7.05009 0C3.15644 0.000127417 0 3.16822 0 7.07623L0 7.95031L28.6757 7.95031Z" transform="translate(0.04519531 0.07453897)" id="Path" fill="#4548A1" stroke="none" />
        </g>
        <path d="M11.3123 0L2.81633 0L0.596811 2.77731C0.12353 3.36967 -0.0820076 4.13328 0.0298381 4.88428L0.921684 10.8729C0.985668 11.3025 1.46809 11.525 1.83448 11.2937L7.06431 7.9944L12.2941 11.2937C12.6607 11.5249 13.143 11.3025 13.2069 10.8729L14.0988 4.88428C14.2106 4.13328 14.0051 3.36967 13.5318 2.77731L11.3123 0Z" transform="translate(43.09208 38.29749)" id="Path" fill="#EBEAE6" stroke="none" />
        <path d="M0 0L0 8.23267C0 8.4661 0.0806152 8.69239 0.228135 8.87281L3.47026 12.8399C3.87271 13.3323 4.62325 13.3323 5.02557 12.8399L8.2677 8.87281C8.41522 8.69226 8.49583 8.4661 8.49583 8.23267L8.49583 0L0 0Z" transform="translate(45.90841 32.59124)" id="Path" fill="#F2A077" stroke="none" />
        <path d="M27.0432 15.8499L26.1633 15.8499L26.1633 10.0899C26.1633 4.51732 21.6623 0 16.1101 0L13.5771 0C8.02483 0 3.52397 4.51744 3.52397 10.0899L3.52397 15.8499L2.64405 15.8499C1.18384 15.8499 0 17.038 0 18.5036L0 19.7587C0 21.2242 1.18371 22.4124 2.64405 22.4124L3.54034 22.4124C3.84884 28.4108 8.7915 33.1788 14.8437 33.1788C17.8698 33.1788 20.6181 31.9873 22.6491 30.0452C24.6801 28.1031 25.9919 25.4105 26.1471 22.4124L27.0434 22.4124C28.5036 22.4124 29.6874 21.2244 29.6874 19.7588L29.6874 18.5038C29.6872 17.0381 28.5035 15.8499 27.0432 15.8499Z" transform="translate(35.31277 3.826716)" id="Path" fill="#FFCCAA" stroke="none" />
        <path d="M13.9615 15.85L13.0816 15.85L13.0816 10.09C13.0816 4.51744 8.58063 0 3.02847 0L0.495498 0C0.329316 0 0.164277 0.00458701 0 0.0126143C5.322 0.271908 9.55779 4.68423 9.55779 10.09L9.55779 15.85L9.54142 22.4124C9.38615 25.4105 8.07435 28.1032 6.04335 30.0452C4.41479 31.6025 2.32451 32.6752 0.000126953 33.04C0.574463 33.1302 1.16238 33.1788 1.76198 33.1788C4.78804 33.1788 7.53619 31.9873 9.56731 30.0452C11.5983 28.1031 12.9101 25.4105 13.0654 22.4124L13.9617 22.4124C15.4219 22.4124 16.6056 21.2244 16.6056 19.7588L16.6056 18.5038C16.6056 17.0382 15.4219 15.85 13.9615 15.85Z" transform="translate(48.39441 3.826589)" id="Path" fill="#F2A077" stroke="none" />
        <g id="Group" transform="translate(44.41797 24.85772)">
          <path d="M5.20037 4.78048C3.72327 4.78048 2.33276 4.2029 1.28527 3.15413C0.755872 2.62267 0.347083 2.00381 0.0694363 1.31359C-0.127341 0.824179 0.108411 0.267239 0.596038 0.069743C1.08366 -0.127881 1.63845 0.10886 1.83535 0.598269C2.01652 1.04894 2.28426 1.45387 2.63097 1.80185C3.31829 2.4899 4.23109 2.86922 5.20037 2.86922C6.68699 2.86922 8.00807 1.97718 8.56603 0.59674C8.76382 0.107713 9.31886 -0.128008 9.80636 0.0703801C10.2936 0.268768 10.5285 0.826091 10.3308 1.31524C9.47984 3.4203 7.46611 4.78048 5.20037 4.78048Z" transform="translate(0.5380441 0.7571348)" id="Path" fill="#383B93" stroke="none" />
        </g>
        <path d="M7.21645e-15 0L16.3028 0C21.7623 0 26.188 4.44189 26.188 9.92133L26.188 13.7991L6.53339 13.7991C2.92513 13.7991 0 10.8633 0 7.24187L0 0L7.21645e-15 0Z" transform="translate(35.28802 0.1174785)" id="Path" fill="#BE6351" stroke="none" />
        <path d="M3.61588 0L0 0C5.45949 0 9.8852 4.44189 9.8852 9.92133L9.8852 13.7991L13.5011 13.7991L13.5011 9.92146C13.5011 4.44201 9.07537 0 3.61588 0Z" transform="translate(47.97495 0.1174785)" id="Path" fill="#AA473A" stroke="none" />
        <path d="M28.6762 7.07547C28.6762 7.07547 28.6762 20.3217 28.6762 20.3217L3.999 20.3217C1.79041 20.3217 0 18.5313 0 16.3227C0 12.423 0 7.07547 0 7.07547C0 3.16759 3.15605 0 7.05098 0C7.05098 0 21.6252 0 21.6252 0C25.5188 0.000127417 28.6762 3.16759 28.6762 7.07547Z" transform="translate(2.005859 39.70162)" id="Path" fill="#FF805B" stroke="none" />
        <path d="M3.01818 0L0 0C3.89391 0 7.05047 3.1681 7.05047 7.07623L7.05047 20.3215L10.0687 20.3215L10.0687 7.07623C10.0687 3.1681 6.91196 0 3.01818 0Z" transform="translate(20.61287 39.70124)" id="Path" fill="#DF6643" stroke="none" />
        <path d="M0 0L0 8.59377C0 10.9484 1.90189 12.8573 4.24798 12.8573L4.24798 12.8573C6.59407 12.8573 8.49596 10.9484 8.49596 8.59377L8.49596 0L0 0Z" transform="translate(12.09571 32.59124)" id="Path" fill="#F2A077" stroke="none" />
        <path d="M27.0433 14.4677L26.1634 14.4677L26.1634 8.2077C26.1634 3.67471 22.5021 0 17.9856 0L11.7018 0C7.18529 0 3.52396 3.67471 3.52396 8.2077L3.52396 14.4677L2.64405 14.4677C1.18384 14.4677 0 15.6557 0 17.1214L0 18.3765C0 19.842 1.18371 21.0302 2.64405 21.0302L3.54034 21.0302C3.84884 27.0286 8.7915 31.7965 14.8437 31.7965C20.8711 31.7965 25.835 27.0557 26.1471 21.0302L27.0434 21.0302C28.5036 21.0302 29.6874 19.8421 29.6874 18.3766L29.6874 17.1215C29.6872 15.6559 28.5035 14.4677 27.0433 14.4677Z" transform="translate(1.499951 5.208936)" id="Path" fill="#FFCCAA" stroke="none" />
        <path d="M13.885 14.4677L13.0051 14.4677L13.0051 8.2077C13.0051 3.67471 9.34375 0 4.82727 0L1.45856 0C5.97505 0 9.63638 3.67471 9.63638 8.2077L9.63638 14.4677L9.62 21.0301C9.33753 26.484 5.24367 30.885 0 31.6709C0.549961 31.7533 1.11262 31.7964 1.68543 31.7964C7.71278 31.7964 12.6767 27.0555 12.9888 21.0301L13.8851 21.0301C15.3453 21.0301 16.529 19.842 16.529 18.3765L16.529 17.1214C16.5289 15.6559 15.3452 14.4677 13.885 14.4677Z" transform="translate(14.65826 5.208936)" id="Path" fill="#F2A077" stroke="none" />
        <g id="Group" transform="translate(4.951172 0.7645023)">
          <path d="M4.38802 4.78069C2.9108 4.78069 1.52041 4.20311 0.472915 3.15422C0.170265 2.85046 -0.455542 1.88536 0.544458 1.38536C1.3305 0.992339 1.67002 1.65272 1.81862 1.80181C2.50582 2.48986 3.41861 2.86918 4.38802 2.86918C5.87464 2.86918 7.19572 1.97727 7.75368 0.596702C7.95147 0.107548 8.50676 -0.128046 8.99388 0.070342C9.48113 0.26873 9.71599 0.826052 9.51832 1.31508C8.66761 3.42052 6.65388 4.78069 4.38802 4.78069Z" transform="translate(7.00437 24.85014)" id="Path" fill="#383B93" stroke="none" />
          <path d="M0 13.4389L3.25457 13.4389C4.17536 13.4389 5.00995 12.8955 5.38535 12.0516L6.22972 10.1532C6.45937 9.63693 7.11052 9.47359 7.55523 9.82067L11.5582 12.9454C11.9677 13.2651 12.4719 13.4388 12.9909 13.4388L22.6394 13.4388L22.6394 6.38423C22.6394 2.85835 19.7915 0 16.2784 0L8.54509 0C7.38893 0 6.4515 0.94072 6.4515 2.10123L6.4515 3.22544L3.07887 3.22544C1.37846 3.22544 9.02056e-16 4.60893 9.02056e-16 6.31555C0 6.31555 0 13.4389 0 13.4389Z" transform="translate(0.07274414 0.04421372)" id="Path" fill="#5E61C4" stroke="none" />
        </g>
        <path d="M3.66679 0L0 0C3.51305 0 6.36099 2.85835 6.36099 6.38423L6.36099 13.4389L10.0278 13.4389L10.0278 6.38423C10.0278 2.85822 7.17983 0 3.66679 0Z" transform="translate(17.63557 0.808716)" id="Path" fill="#383B93" stroke="none" />
        <path d="M4.85875 10.317L2.45769 10.317C1.1003 10.317 0 9.21264 0 7.85042L0 2.46667C0 1.10432 1.1003 0 2.45769 0L4.85875 0C5.85597 0 6.6644 0.811392 6.6644 1.81225L6.6644 8.50496C6.6644 9.50569 5.85597 10.317 4.85875 10.317Z" transform="translate(0 38.48364)" id="Path" fill="#FFCCAA" stroke="none" />
        <g id="Group" transform="translate(5.712891 51.34907)">
          <path d="M1.9043 0.955628L1.9043 8.57644L0 8.57644L0 0.955628C0 0.428121 0.426563 0 0.952148 0C1.47773 0 1.9043 0.428121 1.9043 0.955628Z" transform="translate(19.28037 0.09785629)" id="Path" fill="#DF6643" stroke="none" />
          <path d="M1.9043 0.955628L1.9043 8.57644L0 8.57644L0 0.955628C0 0.428121 0.426563 0 0.952148 0C1.47773 0 1.9043 0.428121 1.9043 0.955628Z" transform="translate(0.07617188 0.09785629)" id="Path" fill="#DF6643" stroke="none" />
        </g>
        <path d="M1.9043 0.955628L1.9043 8.57644L0 8.57644L0 0.955628C0 0.428121 0.426563 0 0.952148 0C1.479 0 1.9043 0.428121 1.9043 0.955628Z" transform="translate(58.80596 51.44693)" id="Path" fill="#373A8C" stroke="none" />
      </g>
    </g>
  </g>
</svg>