<?xml version="1.0" encoding="utf-8"?>
<svg width="110px" height="92px" viewBox="0 0 110 92" version="1.1" xmlns:xlink="http://www.w3.org/1999/xlink" xmlns="http://www.w3.org/2000/svg">
  <desc>Created with Lunacy</desc>
  <g id="5-perfect" transform="translate(0.5 0.5)">
    <path d="M42 84C65.196 84 84 65.196 84 42C84 18.804 65.196 0 42 0C18.804 0 0 18.804 0 42C0 65.196 18.804 84 42 84Z" transform="translate(25 0)" id="Oval-Copy-21" fill="none" stroke="#898CD8" stroke-opacity="0.250372022" stroke-width="1" />
    <path d="M23 46C35.7025 46 46 35.7025 46 23C46 10.2975 35.7025 0 23 0C10.2975 0 0 10.2975 0 23C0 35.7025 10.2975 46 23 46Z" transform="translate(44 19)" id="Oval-Copy-27" fill="none" stroke="#898CD8" stroke-opacity="0.250372022" stroke-width="1" />
    <g id="gift-(1)-2" transform="translate(0 7)">
      <g id="gift-(1)">
        <path d="M1.3708 6.71214C0.613626 6.71214 0 6.10642 0 5.35922L0 1.35291C0 0.605718 0.613806 0 1.3708 0C2.12797 0 2.7416 0.605718 2.7416 1.35291L2.7416 5.35922C2.7416 6.10642 2.12797 6.71214 1.3708 6.71214Z" transform="translate(31.07305 76.49274)" id="Path" fill="#FFFFFF" stroke="none" />
        <path d="M13.011 1.35256L13.011 7.91451C13.011 11.4532 10.0914 14.3343 6.50548 14.3343C4.42884 14.3343 2.74124 15.9996 2.74124 18.0471L2.74124 21.8631L0 21.8631L0 18.0471C0 14.5085 2.91774 11.6274 6.50548 11.6274C8.58032 11.6274 10.2679 9.96201 10.2679 7.91451L10.2679 1.35256C10.2679 0.604297 10.8821 0 11.6403 0C12.3968 1.51545e-14 13.011 0.604297 13.011 1.35256Z" transform="translate(31.20183 42.92641)" id="Path" fill="#FFFFFF" stroke="none" />
        <path d="M10.4493 18.3871L0 18.3871L0 0L10.4491 0C11.1904 0 11.7915 0.593099 11.7915 1.32465L11.7915 17.0627C11.7915 17.7941 11.1906 18.3871 10.4493 18.3871Z" transform="translate(1.357199E-14 59.46969)" id="Path" fill="#BE6351" stroke="none" />
        <path d="M11.7915 0L11.7915 4.02124C11.7915 4.75279 11.1904 5.34589 10.4491 5.34589L0 5.34589L0 1.32465L10.4491 1.32465C11.1906 1.32465 11.7915 0.731555 11.7915 0Z" transform="translate(1.357199E-14 72.51096)" id="Path" fill="#9F4B3A" stroke="none" />
        <path d="M3.67726 8.58261L3.67726 8.19355C3.67726 6.61403 4.45442 5.13297 5.76146 4.22137L11.2346 0.404346C11.6117 0.141299 12.0622 0 12.5241 0L20.234 0C22.0668 0 23.5523 1.46613 23.5523 3.27458L23.5523 3.35349L28.1991 3.35349C29.656 3.35349 30.8371 4.51907 30.8371 5.95677L30.8371 5.95677C30.8371 7.39446 29.656 8.56004 28.1991 8.56004L28.8478 8.56004C30.3047 8.56004 31.4859 9.72545 31.4859 11.1633L31.4859 11.1633C31.4859 12.601 30.3049 13.7666 28.8478 13.7666L27.0314 13.7666C28.4883 13.7666 29.6695 14.9322 29.6695 16.3699L29.6695 16.3699C29.6695 17.8076 28.4883 18.9731 27.0314 18.9731L25.4746 18.9731C26.9315 18.9731 28.1126 20.1385 28.1126 21.5764L28.1126 21.5764C28.1126 23.0141 26.9315 24.1797 25.4746 24.1797L24.6086 24.1797L19.8527 24.1797L5.71427 24.1797C4.58932 24.1797 3.67726 23.2796 3.67726 22.1695C3.67726 21.7508 3.33325 21.4113 2.90892 21.4113L0 21.4113L0 8.58315L3.67726 8.58315L3.67726 8.58261Z" transform="translate(11.79164 53.66667)" id="Path" fill="#FFCCAA" stroke="none" />
        <g id="Group" transform="translate(11.75868 54.94511)">
          <path d="M3.67726 0.758037C3.67726 1.86817 4.58932 2.76821 5.71427 2.76821C8.26405 2.76821 22.8596 2.76821 24.6086 2.76821L25.4748 2.76821C26.1821 2.76821 26.8229 2.49201 27.2966 2.04483C27.7985 2.51885 28.1126 3.18482 28.1126 3.92455L28.1126 3.92455C28.1126 5.36225 26.9315 6.52783 25.4746 6.52783L24.6085 6.52783L19.8527 6.52783L5.71427 6.52783C4.58932 6.52783 3.67726 5.62778 3.67726 4.51765C3.67726 4.09891 3.33325 3.75944 2.90892 3.75944L0 3.75944L0 6.97591e-08L2.90892 6.97591e-08C3.33325 -0.000177665 3.67726 0.339295 3.67726 0.758037Z" transform="translate(0.03295968 16.37289)" id="Path" fill="#F2A077" stroke="none" />
          <path d="M9.08228 1.89021C9.08228 1.18531 8.85445 0.53427 8.47046 0L0.984828 0C0.440903 0 0 0.435094 0 0.971852C0 1.50861 0.440903 1.9437 0.984828 1.9437L9.0821 1.9437L9.0821 1.89021L9.08228 1.89021L9.08228 1.89021Z" transform="translate(14.50298 0.1059297)" id="Path" fill="#F2A077" stroke="none" />
        </g>
        <path d="M5.70355 6.4586C4.17876 8.58217 1.7574 9.54833 0.429284 7.40237C-1.03841 5.03104 1.43158 1.57908 5.19061 0.0973096C5.51948 -0.0324365 5.88744 -0.0324365 6.21632 0.0973096C9.97534 1.5789 12.4453 5.03104 10.9778 7.40237C9.64971 9.54833 7.22834 8.58217 5.70355 6.4586Z" transform="translate(37.13772 40.67424)" id="Path" fill="#FF5A59" stroke="none" />
        <path d="M1.49327 0.0973096C1.1644 -0.0324365 0.796436 -0.0324365 0.467559 0.0973096C0.309065 0.159872 0.153632 0.227056 0 0.296194C2.46747 1.86932 4.02738 5.13093 3.03409 7.40219C2.91558 7.67324 2.78464 7.89434 2.64416 8.07012C3.93553 8.88094 5.34919 8.8653 6.25477 7.40219C7.72229 5.03104 5.2523 1.5789 1.49327 0.0973096Z" transform="translate(41.86095 40.67442)" id="Path" fill="#CE3A4C" stroke="none" />
        <path d="M47.8183 12.0376C45.3255 -5.37081 27.4754 -1.48909 24.0301 8.54632C20.5848 -1.48909 2.73471 -5.37081 0.24202 12.0376C-2.54478 31.4995 19.5636 41.1979 24.0303 42.1954C28.4967 41.1979 50.6051 31.4997 47.8183 12.0376Z" transform="translate(18.8112 3.522815E-05)" id="Path" fill="#FF805B" stroke="none" />
        <path d="M26.1642 12.036C24.7334 2.04394 18.2435 -0.932219 12.3217 0.241361C16.5928 1.15403 20.3626 4.70889 21.4119 12.036C23.8552 29.0997 7.16198 38.6572 0 41.426C1.00662 41.8152 1.82575 42.0708 2.37616 42.1938C6.84264 41.1963 28.951 31.4981 26.1642 12.036Z" transform="translate(40.4653 0.001601765)" id="Path" fill="#E05B34" stroke="none" />
        <g id="Group" transform="translate(34.40054 17.0625)">
          <path d="M0.761315 0C0.380567 0 0 0.176846 0 0.530359L0.000180108 0.530359L0.000180108 7.55727C0.000180108 7.83347 0.291234 8.07661 0.761495 8.07661L3.24698 8.07661C4.51223 8.07661 5.49742 7.44689 5.49742 5.70119L5.49742 5.46906C5.49742 4.36427 5.02716 3.95548 4.34419 3.70132C4.93765 3.44716 5.29588 2.86152 5.29588 1.96663C5.29588 0.39777 4.17615 0 3.05661 0L0.761315 0ZM1.73552 3.03837L2.91108 3.03837C3.33649 3.03837 3.5492 2.65162 3.5492 2.27589C3.5492 1.88914 3.33649 1.50239 2.91108 1.50239L1.73552 1.50239L1.73552 3.03837ZM3.75092 5.55758C3.75092 6.2646 3.41502 6.57404 2.85524 6.57404L1.73552 6.57404L1.73552 4.36427L2.85524 4.36427C3.41502 4.36427 3.75092 4.62927 3.75092 5.38073L3.75092 5.55758Z" transform="translate(0.07150269 0.07144922)" id="Shape" fill="#FFFFFF" fill-rule="evenodd" stroke="none" />
          <path d="M0.000180108 0.530359C0.000180108 0.176846 0.380747 0 0.761495 0L4.64659 0C5.016 0 5.17269 0.386572 5.17269 0.740264C5.17269 1.14905 4.98232 1.50274 4.64659 1.50274L1.74668 1.50274L1.74668 3.37002L3.43735 3.37002C3.77325 3.37002 3.96345 3.69048 3.96345 4.04399C3.96345 4.34223 3.80675 4.69574 3.43735 4.69574L1.74668 4.69574L1.74668 7.54642C1.74668 7.89994 1.30992 8.07678 0.873341 8.07678C0.436761 8.07678 0 7.89994 0 7.54642L0 0.530359L0.000180108 0.530359Z" transform="translate(6.475406 0.07144922)" id="Path" fill="#FFFFFF" stroke="none" />
          <path d="M0.000180108 0.530359C0.000180108 0.176846 0.380747 0 0.761495 0L4.64659 0C5.016 0 5.17269 0.386572 5.17269 0.740264C5.17269 1.14905 4.98232 1.50274 4.64659 1.50274L1.74668 1.50274L1.74668 3.37002L3.43735 3.37002C3.77325 3.37002 3.96345 3.69048 3.96345 4.04399C3.96345 4.34223 3.80675 4.69574 3.43735 4.69574L1.74668 4.69574L1.74668 7.54642C1.74668 7.89994 1.30992 8.07678 0.873341 8.07678C0.436761 8.07678 0 7.89994 0 7.54642L0 0.530359L0.000180108 0.530359Z" transform="translate(12.24137 0.07144922)" id="Path" fill="#FFFFFF" stroke="none" />
        </g>
      </g>
    </g>
  </g>
</svg>