<?xml version="1.0" encoding="utf-8"?>
<svg width="110px" height="85px" viewBox="0 0 110 85" version="1.1" xmlns:xlink="http://www.w3.org/1999/xlink" xmlns="http://www.w3.org/2000/svg">
  <desc>Created with Lunacy</desc>
  <g id="5-qutomated-gifting" transform="translate(0.5 0.5)">
    <path d="M42 84C65.196 84 84 65.196 84 42C84 18.804 65.196 0 42 0C18.804 0 0 18.804 0 42C0 65.196 18.804 84 42 84Z" transform="translate(25 0)" id="Oval" fill="none" stroke="#898CD8" stroke-opacity="0.250372022" stroke-width="1" />
    <path d="M23 46C35.7025 46 46 35.7025 46 23C46 10.2975 35.7025 0 23 0C10.2975 0 0 10.2975 0 23C0 35.7025 10.2975 46 23 46Z" transform="translate(44 19)" id="Oval-Copy-29" fill="none" stroke="#898CD8" stroke-opacity="0.250372022" stroke-width="1" />
    <g id="conveyor-belt-2" transform="matrix(-1 0 0 1 67 14)">
      <g id="conveyor-belt">
        <g id="Group" transform="translate(14.96552 2.137931)">
          <path d="M-6.38493e-14 0L-6.38493e-14 0.491724L-6.38493e-14 2.13793L-6.38493e-14 38.4828L8.55172 38.4828L8.55172 2.13793L8.55172 0.491724L8.55172 0L-6.38493e-14 0Z" transform="translate(38.13793 8.551724)" id="Path" fill="#8083D8" stroke="none" />
          <path d="M29.0945 0L27.4483 0L2.13793 0L0.491724 0L0 0L0 8.55172L0.491724 8.55172L2.13793 8.55172L27.4483 8.55172L29.0945 8.55172L29.5862 8.55172L29.5862 0L29.0945 0Z" transform="translate(8.551724 0)" id="Path" fill="#8083D8" stroke="none" />
          <path d="M0 0L0 0.491724L0 2.13793L0 6.41379L8.55172 6.41379L8.55172 2.13793L8.55172 0.491724L8.55172 0L0 0Z" transform="translate(0 8.551724)" id="Path" fill="#8083D8" stroke="none" />
        </g>
        <path d="M-1.33514e-15 0L19.2414 0L19.2414 6.41379L-1.33514e-15 6.41379L-1.33514e-15 0Z" transform="translate(47.75862 55.58621)" id="Path" fill="#6266D8" stroke="none" />
        <path d="M14.9655 0L19.2414 6.41379L-1.33514e-15 6.41379L4.27586 0L5.34483 0L13.8966 0L14.9655 0Z" transform="translate(47.75862 49.17241)" id="Path" fill="#E8E9FF" stroke="none" />
        <path d="M12.8147 6.41379C12.8191 8.9452 11.3317 11.2415 9.01979 12.2726C6.70789 13.3037 4.00556 12.876 2.12509 11.1814C1.94554 11.0339 1.78084 10.8692 1.63336 10.6897C-0.0512715 8.80619 -0.472988 6.1091 0.556297 3.80129C1.58558 1.49347 3.87401 0.00510653 6.40095 0C9.94319 -9.49432e-16 12.8147 2.87155 12.8147 6.41379Z" transform="translate(50.97836 8.881784E-16)" id="Path" fill="#E8E9FF" stroke="none" />
        <path d="M2.13793 4.27586C3.31868 4.27586 4.27586 3.31868 4.27586 2.13793C4.27586 0.957184 3.31868 0 2.13793 0C0.957185 0 -5.68473e-14 0.957184 -5.68473e-14 2.13793C-5.68473e-14 3.31868 0.957185 4.27586 2.13793 4.27586Z" transform="translate(55.24138 4.275862)" id="Oval" fill="#6266D8" stroke="none" />
        <path d="M0 0L38.4828 0L38.4828 2.13893Q38.4828 2.24391 38.4725 2.34839Q38.4622 2.45286 38.4417 2.55583Q38.4212 2.65879 38.3907 2.75925Q38.3603 2.85971 38.3201 2.9567Q38.2799 3.05369 38.2304 3.14627Q38.1809 3.23886 38.1226 3.32615Q38.0643 3.41344 37.9977 3.49459Q37.9311 3.57574 37.8569 3.64997Q37.7826 3.7242 37.7015 3.7908Q37.6203 3.8574 37.533 3.91573Q37.4457 3.97405 37.3532 4.02354Q37.2606 4.07302 37.1636 4.1132Q37.0666 4.15337 36.9661 4.18385Q36.8657 4.21432 36.7627 4.2348Q36.6598 4.25528 36.5553 4.26557Q36.4508 4.27586 36.3458 4.27586L2.13693 4.27586Q2.03195 4.27586 1.92748 4.26557Q1.823 4.25528 1.72004 4.2348Q1.61707 4.21432 1.51661 4.18385Q1.41615 4.15337 1.31916 4.1132Q1.22217 4.07302 1.12959 4.02354Q1.037 3.97405 0.949716 3.91572Q0.862428 3.8574 0.781277 3.7908Q0.700125 3.7242 0.625893 3.64997Q0.55166 3.57574 0.485061 3.49459Q0.418462 3.41344 0.360138 3.32615Q0.301814 3.23886 0.252326 3.14627Q0.202839 3.05369 0.162664 2.9567Q0.12249 2.85971 0.0920156 2.75925Q0.0615413 2.65879 0.0410605 2.55583Q0.0205798 2.45286 0.0102899 2.34839Q0 2.24391 0 2.13893L0 0Z" transform="translate(0 57.72414)" id="Path" fill="#EE8700" stroke="none" />
        <path d="M0 0L38.4828 0L38.4828 21.3793L0 21.3793L0 0Z" transform="translate(0 36.34483)" id="Path" fill="#FFA733" stroke="none" />
        <path d="M38.4828 0L38.4828 4.27586L0 4.27586L0 0L2.13793 0L5.34483 0L33.1379 0L36.3448 0L38.4828 0Z" transform="translate(0 32.06897)" id="Path" fill="#EE8700" stroke="none" />
        <path d="M3.2069 1.60345L3.2069 5.34483L0 5.34483L0 1.60345C0 0.717888 0.717889 0 1.60345 0C2.48901 0 3.2069 0.717888 3.2069 1.60345L3.2069 1.60345Z" transform="translate(33.13793 26.72414)" id="Path" fill="#FF9811" stroke="none" />
        <path d="M4.27586 2.13793L4.27586 10.6897C4.27586 11.8704 3.31868 12.8276 2.13793 12.8276C0.957184 12.8276 0 11.8704 0 10.6897L0 2.13793C0.00352203 0.958646 0.958646 0.00352203 2.13793 0C3.31504 0.00873048 4.26713 0.96082 4.27586 2.13793Z" transform="translate(25.65517 40.62069)" id="Path" fill="#EE8700" stroke="none" />
        <path d="M12.8276 0L12.8276 4.27586L10.6897 4.27586L2.13793 4.27586L0 4.27586L0 0L2.13793 0L10.6897 0L12.8276 0Z" transform="translate(12.82759 17.10345)" id="Path" fill="#CACCFF" stroke="none" />
        <path d="M12.8276 6.4134C12.8311 7.99407 12.244 9.51903 11.1814 10.6893C11.0339 10.8688 10.8692 11.0335 10.6897 11.181C8.80619 12.8656 6.1091 13.2873 3.80129 12.2581C1.49348 11.2288 0.00511142 8.94034 4.89865e-06 6.4134C-0.00326927 3.75571 1.63502 1.37208 4.1174 0.422799C6.59977 -0.526486 9.4105 0.155802 11.1814 2.13754C12.244 3.30778 12.8311 4.83274 12.8276 6.4134L12.8276 6.4134Z" transform="translate(12.82758 0.0003880778)" id="Path" fill="#E8E9FF" stroke="none" />
        <path d="M4.27586 2.13793L4.27586 10.6897C4.27586 11.8704 3.31868 12.8276 2.13793 12.8276C0.957184 12.8276 0 11.8704 0 10.6897L0 2.13793C0.00352203 0.958646 0.958646 0.00352203 2.13793 0C3.31504 0.00873048 4.26713 0.96082 4.27586 2.13793Z" transform="translate(17.10345 40.62069)" id="Path" fill="#EE8700" stroke="none" />
        <path d="M2.13793 4.27586C3.31868 4.27586 4.27586 3.31868 4.27586 2.13793C4.27586 0.957184 3.31868 0 2.13793 0C0.957184 0 0 0.957184 0 2.13793C0 3.31868 0.957184 4.27586 2.13793 4.27586Z" transform="translate(17.10345 4.275862)" id="Oval" fill="#6266D8" stroke="none" />
        <path d="M4.27586 2.13793L4.27586 10.6897C4.27586 11.8704 3.31868 12.8276 2.13793 12.8276C0.957184 12.8276 0 11.8704 0 10.6897L0 2.13793C0.00352203 0.958646 0.958646 0.00352203 2.13793 0C3.31504 0.00873048 4.26713 0.96082 4.27586 2.13793L4.27586 2.13793Z" transform="translate(8.551724 40.62069)" id="Path" fill="#EE8700" stroke="none" />
        <path d="M3.2069 1.60345L3.2069 5.34483L0 5.34483L0 1.60345C0 0.717888 0.717888 0 1.60345 0C2.48901 0 3.2069 0.717888 3.2069 1.60345L3.2069 1.60345Z" transform="translate(2.137931 26.72414)" id="Path" fill="#FF9811" stroke="none" />
        <path d="M0 0L38.4828 0L38.4828 2.13793L0 2.13793L0 0Z" transform="translate(0 36.34483)" id="Path" fill="#FF9811" stroke="none" />
        <path d="M0 0L38.4828 0L38.4828 2.13793L0 2.13793L0 0Z" transform="translate(0 55.58621)" id="Path" fill="#FF9811" stroke="none" />
        <path d="M2.45114 7.16955L0.313207 5.03162C0.112723 4.8312 6.05434e-05 4.55935 0 4.27586L0 0L2.13793 0L2.13793 3.83331L3.96266 5.65803L2.45114 7.16955Z" transform="translate(13.89655 21.37931)" id="Path" fill="#E8E9FF" stroke="none" />
        <path d="M1.51152 7.16955L0 5.65803L1.82472 3.83331L1.82472 0L3.96266 0L3.96266 4.27586C3.9626 4.55935 3.84993 4.8312 3.64945 5.03162L1.51152 7.16955Z" transform="translate(20.62355 21.37931)" id="Path" fill="#E8E9FF" stroke="none" />
      </g>
    </g>
  </g>
</svg>