<?xml version="1.0" encoding="utf-8"?>
<svg width="18px" height="18px" viewBox="0 0 18 18" version="1.1" xmlns:xlink="http://www.w3.org/1999/xlink" xmlns="http://www.w3.org/2000/svg">
  <desc>Created with Lunacy</desc>
  <g id="instagram">
    <path d="M17.4948 3.10776C17.7159 3.6774 17.8702 4.33479 17.9123 5.29102C17.9544 6.25081 17.9579 6.55664 17.9579 9C17.9579 11.4434 17.9474 11.7492 17.9053 12.709C17.8632 13.6652 17.7087 14.3192 17.4878 14.8922C17.0211 16.1016 16.0667 17.0578 14.8596 17.5254C14.2913 17.7469 13.6351 17.9015 12.6808 17.9437C11.7229 17.986 11.4176 17.9964 8.97903 17.9964C6.54043 17.9964 6.23506 17.986 5.27728 17.9437C4.32278 17.9015 3.67023 17.7469 3.09827 17.5254C2.50178 17.3004 1.95792 16.9453 1.50877 16.4883C1.05263 16.0383 0.698328 15.4969 0.470258 14.8922C0.249178 14.3226 0.0947094 13.6652 0.0526316 12.709C0.0105537 11.7492 0 11.4434 0 9C0 6.55664 0.0105537 6.25081 0.0561952 5.28745C0.098273 4.33122 0.252604 3.6774 0.473684 3.10432C0.698328 2.50667 1.05263 1.96175 1.50877 1.51172C1.95792 1.05112 2.49822 0.699554 3.10184 0.471039C3.67023 0.249664 4.32634 0.0948944 5.2807 0.0527344C6.23862 0.0105743 6.54386 0 8.98246 0C11.4211 0 11.7263 0.0105743 12.6878 0.0563049C13.6421 0.098465 14.2948 0.253098 14.8666 0.474609C15.4631 0.699554 16.007 1.05469 16.4561 1.51172C16.9158 1.96175 17.2667 2.5031 17.4948 3.10776ZM15.986 14.3086C16.1088 13.9922 16.2562 13.5176 16.2948 12.6387C16.3369 11.6895 16.3475 11.4082 16.3475 9.007C16.3475 6.6058 16.3369 6.32112 16.2948 5.3719C16.2562 4.49643 16.1088 4.01839 15.986 3.70198C15.8421 3.31169 15.614 2.96013 15.3158 2.6683C15.0281 2.36948 14.6737 2.14096 14.2843 1.9969C13.9685 1.87386 13.4948 1.72623 12.6176 1.6875C11.6737 1.64534 11.3895 1.63477 8.98945 1.63477C6.59306 1.63477 6.3088 1.64534 5.36143 1.6875C4.4878 1.72623 4.01055 1.87386 3.69476 1.9969C3.30524 2.14096 2.95436 2.36948 2.66324 2.6683C2.36143 2.9567 2.13336 3.31169 1.98945 3.70198C1.86664 4.01839 1.7193 4.493 1.68078 5.3719C1.63857 6.31755 1.62815 6.6058 1.62815 9.007C1.62815 11.4082 1.63857 11.693 1.68078 12.6422C1.7193 13.5176 1.86664 13.9958 1.98945 14.3122C2.13336 14.7023 2.36143 15.0539 2.65968 15.3457C2.94737 15.6445 3.30181 15.873 3.6912 16.0172C4.00699 16.1403 4.48067 16.2879 5.35787 16.3265C6.30181 16.3688 6.5895 16.3792 8.98602 16.3792C11.3825 16.3792 11.6667 16.3688 12.614 16.3265C13.4878 16.2879 13.9649 16.1403 14.2807 16.0172C15.0632 15.7148 15.6842 15.0926 15.986 14.3086Z" transform="translate(0.01576207 0)" id="Shape" fill="#FFFFFF" fill-rule="evenodd" stroke="none" />
    <path d="M0 4.62305C0 2.07065 2.06675 0 4.61404 0C7.16146 0 9.22807 2.07065 9.22807 4.62305C9.22807 7.17545 7.16146 9.24609 4.61404 9.24609C2.06675 9.24609 0 7.17545 0 4.62305ZM1.62103 4.62305C1.62103 6.27896 2.96149 7.6219 4.61404 7.6219C6.26672 7.6219 7.60704 6.27896 7.60704 4.62305C7.60704 2.96713 6.26672 1.62419 4.61404 1.62419C2.96149 1.62419 1.62103 2.96713 1.62103 4.62305Z" transform="translate(4.384183 4.376953)" id="Shape" fill="#FFFFFF" fill-rule="evenodd" stroke="none" />
    <path d="M2.15447 1.07927C2.15447 1.67528 1.67215 2.15854 1.07717 2.15854C0.482319 2.15854 0 1.67528 0 1.07927C0 0.483124 0.482319 0 1.07717 0C1.67215 0 2.15447 0.483124 2.15447 1.07927L2.15447 1.07927Z" transform="translate(12.71752 3.114899)" id="Path" fill="#FFFFFF" stroke="none" />
  </g>
</svg>