<?xml version="1.0" encoding="utf-8"?>
<svg width="18px" height="16px" viewBox="0 0 18 16" version="1.1" xmlns:xlink="http://www.w3.org/1999/xlink" xmlns="http://www.w3.org/2000/svg">
  <desc>Created with Lunacy</desc>
  <path d="M14.5858 0.585786C15.3668 -0.195262 16.6332 -0.195262 17.4142 0.585786C17.7476 0.919184 17.9511 1.35817 17.9923 1.82415L18 2L16 2L9.5 8.5L3.70711 2.70711C3.51957 2.51957 3.26522 2.41421 3 2.41421C2.48716 2.41421 2.06449 2.80025 2.00673 3.29759L2 3.41421L2 11.0858C2 12.1401 2.81588 13.004 3.85074 13.0803L4 13.0858L14 13.0858C15.0544 13.0858 15.9182 12.2699 15.9945 11.235L16 11.0858L16 7.08579L18 7.08579L18 11.0858C18 13.228 16.316 14.9769 14.1996 15.0809L14 15.0858L4 15.0858C1.8578 15.0858 0.108921 13.4018 0.00489531 11.2854L0 11.0858L0 3.41421C0 1.75736 1.34315 0.414214 3 0.414214C3.72935 0.414214 4.43131 0.679801 4.97659 1.15742L5.12132 1.29289L9.499 5.67079L14.5858 0.585786Z" id="Mail-icon" fill="#FFFFFF" stroke="none" />
</svg>