<?xml version="1.0" encoding="utf-8"?>
<svg width="38px" height="38px" viewBox="0 0 38 38" version="1.1" xmlns:xlink="http://www.w3.org/1999/xlink" xmlns="http://www.w3.org/2000/svg">
  <desc>Created with Lunacy</desc>
  <defs>
    <path d="M-2.73381e-12 -1.83541e-14L19.001 -1.83541e-14Q19.4674 -1.83541e-14 19.9332 0.0228851Q20.3991 0.0457703 20.8632 0.0914854Q21.3274 0.1372 21.7887 0.205635Q22.2501 0.27407 22.7075 0.36506Q23.165 0.45605 23.6174 0.569376Q24.0698 0.682702 24.5161 0.818091Q24.9624 0.953479 25.4016 1.1106Q25.8407 1.26773 26.2716 1.44621Q26.7025 1.6247 27.1241 1.82411Q27.5457 2.02352 27.9571 2.24338Q28.3684 2.46324 28.7684 2.70301Q29.1685 2.94279 29.5563 3.20191Q29.9441 3.46103 30.3187 3.73886Q30.6933 4.01669 31.0538 4.31257Q31.4144 4.60845 31.7599 4.92167Q32.1055 5.23488 32.4353 5.56468Q32.7651 5.89447 33.0783 6.24005Q33.3915 6.58563 33.6874 6.94616Q33.9833 7.30669 34.2611 7.68131Q34.539 8.05592 34.7981 8.44372Q35.0572 8.83152 35.297 9.23156Q35.5368 9.63161 35.7566 10.0429Q35.9765 10.4543 36.1759 10.8759Q36.3753 11.2975 36.5538 11.7284Q36.7323 12.1593 36.8894 12.5984Q37.0465 13.0376 37.1819 13.4839Q37.3173 13.9302 37.4306 14.3826Q37.5439 14.835 37.6349 15.2925Q37.7259 15.7499 37.7944 16.2113Q37.8628 16.6726 37.9085 17.1368Q37.9542 17.6009 37.9771 18.0668Q38 18.5326 38 18.999L38 19.001Q38 19.4674 37.9771 19.9332Q37.9542 20.3991 37.9085 20.8632Q37.8628 21.3274 37.7944 21.7887Q37.7259 22.2501 37.6349 22.7075Q37.5439 23.165 37.4306 23.6174Q37.3173 24.0698 37.1819 24.5161Q37.0465 24.9624 36.8894 25.4016Q36.7323 25.8407 36.5538 26.2716Q36.3753 26.7025 36.1759 27.1241Q35.9765 27.5457 35.7566 27.9571Q35.5368 28.3684 35.297 28.7684Q35.0572 29.1685 34.7981 29.5563Q34.539 29.9441 34.2611 30.3187Q33.9833 30.6933 33.6874 31.0538Q33.3915 31.4144 33.0783 31.7599Q32.7651 32.1055 32.4353 32.4353Q32.1055 32.7651 31.7599 33.0783Q31.4144 33.3915 31.0538 33.6874Q30.6933 33.9833 30.3187 34.2611Q29.9441 34.539 29.5563 34.7981Q29.1685 35.0572 28.7684 35.297Q28.3684 35.5368 27.9571 35.7566Q27.5457 35.9765 27.1241 36.1759Q26.7025 36.3753 26.2716 36.5538Q25.8407 36.7323 25.4016 36.8894Q24.9624 37.0465 24.5161 37.1819Q24.0698 37.3173 23.6174 37.4306Q23.165 37.5439 22.7075 37.6349Q22.2501 37.7259 21.7887 37.7944Q21.3274 37.8628 20.8632 37.9085Q20.3991 37.9542 19.9332 37.9771Q19.4674 38 19.001 38L18.999 38Q18.5326 38 18.0668 37.9771Q17.6009 37.9542 17.1368 37.9085Q16.6726 37.8628 16.2113 37.7944Q15.7499 37.7259 15.2925 37.6349Q14.835 37.5439 14.3826 37.4306Q13.9302 37.3173 13.4839 37.1819Q13.0376 37.0465 12.5984 36.8894Q12.1593 36.7323 11.7284 36.5538Q11.2975 36.3753 10.8759 36.1759Q10.4543 35.9765 10.0429 35.7566Q9.63161 35.5368 9.23156 35.297Q8.83152 35.0572 8.44372 34.7981Q8.05592 34.539 7.68131 34.2611Q7.30669 33.9833 6.94616 33.6874Q6.58563 33.3915 6.24005 33.0783Q5.89447 32.7651 5.56468 32.4353Q5.23488 32.1055 4.92167 31.7599Q4.60845 31.4144 4.31257 31.0538Q4.01669 30.6933 3.73886 30.3187Q3.46103 29.9441 3.20191 29.5563Q2.94279 29.1685 2.70301 28.7684Q2.46324 28.3684 2.24338 27.9571Q2.02352 27.5457 1.82411 27.1241Q1.6247 26.7025 1.44621 26.2716Q1.26773 25.8407 1.1106 25.4016Q0.953479 24.9624 0.81809 24.5161Q0.682702 24.0698 0.569376 23.6174Q0.45605 23.165 0.36506 22.7075Q0.27407 22.2501 0.205635 21.7887Q0.1372 21.3274 0.0914854 20.8632Q0.0457703 20.3991 0.0228851 19.9332Q-2.73381e-12 19.4674 -2.73381e-12 19.001L-2.73381e-12 -1.83541e-14Z" transform="matrix(-4.371139E-08 -1 1 -4.371139E-08 0 38)" id="path_1" />
    <clipPath id="clip_1">
      <use xlink:href="#path_1" />
    </clipPath>
  </defs>
  <g id="Point" transform="matrix(-1 1.748456E-07 1.748456E-07 1 38 0)">
    <g id="Rectangle-Copy-3">
      <use stroke="none" fill="#FF805B" xlink:href="#path_1" />
      <g clip-path="url(#clip_1)">
        <use xlink:href="#path_1" fill="none" stroke="#FFFFFF" stroke-width="16" />
      </g>
    </g>
  </g>
</svg>