<?xml version="1.0" encoding="utf-8"?>
<svg width="470px" height="147px" viewBox="0 0 470 147" version="1.1" xmlns:xlink="http://www.w3.org/1999/xlink" xmlns="http://www.w3.org/2000/svg">
  <desc>Created with Lunacy</desc>
  <path d="M-7.08851e-15 0L-3.54416e-15 38.001Q-3.45716e-15 38.9338 0.0457715 39.8655Q0.0915429 40.7972 0.182976 41.7256Q0.274408 42.6539 0.411282 43.5766Q0.548155 44.4993 0.73014 45.4142Q0.912125 46.3291 1.13878 47.234Q1.36544 48.1389 1.63622 49.0315Q1.90701 49.9242 2.22127 50.8025Q2.53553 51.6808 2.8925 52.5426Q3.24948 53.4044 3.64831 54.2477Q4.04714 55.0909 4.48687 55.9136Q4.9266 56.7363 5.40617 57.5364Q5.88574 58.3365 6.40399 59.1121Q6.92223 59.8877 7.47792 60.637Q8.0336 61.3862 8.62538 62.1073Q9.21715 62.8284 9.8436 63.5196Q10.47 64.2107 11.1296 64.8703Q11.7893 65.53 12.4804 66.1564Q13.1716 66.7828 13.8927 67.3746Q14.6138 67.9664 15.363 68.5221Q16.1123 69.0778 16.8879 69.596Q17.6635 70.1143 18.4636 70.5938Q19.2637 71.0734 20.0864 71.5131Q20.9091 71.9528 21.7523 72.3517Q22.5956 72.7505 23.4574 73.1075Q24.3192 73.4645 25.1975 73.7787Q26.0758 74.093 26.9685 74.3638Q27.8611 74.6345 28.766 74.8612Q29.6709 75.0879 30.5858 75.2699Q31.5007 75.4518 32.4234 75.5887Q33.3461 75.7256 34.2744 75.817Q35.2028 75.9084 36.1345 75.9542Q37.0662 76 37.999 76L433.001 76Q433.836 76 434.669 76.0409Q435.503 76.0819 436.334 76.1637Q437.164 76.2455 437.99 76.368Q438.815 76.4904 439.634 76.6533Q440.452 76.8161 441.262 77.0189Q442.072 77.2217 442.87 77.464Q443.669 77.7063 444.455 77.9874Q445.241 78.2686 446.012 78.588Q446.783 78.9074 447.537 79.2643Q448.292 79.6211 449.028 80.0146Q449.764 80.408 450.48 80.8371Q451.196 81.2662 451.89 81.7299Q452.584 82.1936 453.254 82.6907Q453.925 83.1879 454.57 83.7174Q455.215 84.2469 455.833 84.8074Q456.452 85.3679 457.042 85.9581Q457.632 86.5482 458.193 87.1667Q458.753 87.7851 459.283 88.4303Q459.812 89.0754 460.309 89.7458Q460.806 90.4162 461.27 91.1102Q461.734 91.8041 462.163 92.52Q462.592 93.2359 462.985 93.972Q463.379 94.7081 463.736 95.4625Q464.093 96.217 464.412 96.9881Q464.731 97.7592 465.013 98.5451Q465.294 99.3309 465.536 100.13Q465.778 100.928 465.981 101.738Q466.184 102.548 466.347 103.366Q466.509 104.185 466.632 105.01Q466.754 105.836 466.836 106.667Q466.918 107.497 466.959 108.331Q467 109.164 467 109.999L467 144" transform="translate(1.5 1.5)" id="arrow" fill="none" stroke="#B2B4FF" stroke-opacity="0.197079614" stroke-width="3" stroke-linecap="round" stroke-dasharray="5 10" />
</svg>