<?xml version="1.0" encoding="utf-8"?>
<svg width="40px" height="40px" viewBox="0 0 40 40" version="1.1" xmlns:xlink="http://www.w3.org/1999/xlink" xmlns="http://www.w3.org/2000/svg">
  <desc>Created with Lunacy</desc>
  <defs>
    <linearGradient x1="0.06714169" y1="0.9348502" x2="0.9360817" y2="0.06618737" id="gradient_1">
      <stop offset="0" stop-color="#FFDD55" />
      <stop offset="0.5" stop-color="#FF543E" />
      <stop offset="1" stop-color="#C837AB" />
    </linearGradient>
  </defs>
  <g id="8-instagram">
    <path d="M2.60146 2.7694C-0.52356 6.01538 0.116026 9.46351 0.116026 19.9388C0.116026 28.6378 -1.40175 37.3584 6.54171 39.4114C9.02217 40.0493 31.0001 40.0493 33.4772 39.4081C36.7845 38.5547 39.4754 35.8721 39.8433 31.1945C39.8946 30.5417 39.8946 9.34752 39.8416 8.68143C39.4506 3.69895 36.3835 0.827446 32.3422 0.245854C31.416 0.11164 31.2304 0.071873 26.4782 0.0635882C9.62199 0.071873 5.92698 -0.678729 2.60146 2.7694Z" transform="translate(0.06520385 0.03997169)" id="Path" fill="url(#gradient_1)" stroke="none" />
    <path d="M14.6823 0.0141702L14.6889 0.0141705C15.2651 0.0141416 15.8223 0.0103796 16.3615 0.0067395C21.0521 -0.0249286 24.3753 -0.0473651 26.9007 2.47807C29.4163 4.9922 29.3985 8.26096 29.372 13.1051C29.3692 13.6182 29.3663 14.1488 29.3663 14.6981C29.3663 15.2062 29.3681 15.6954 29.3699 16.167C29.3831 19.7067 29.3927 22.2535 28.5958 24.3151C26.5805 29.4857 21.4586 29.4391 16.2007 29.3913C15.696 29.3867 15.1901 29.3821 14.6856 29.3821C14.2024 29.3821 13.7205 29.3856 13.2418 29.3891C7.80519 29.4288 2.77816 29.4654 0.777116 24.3151C-0.0182648 22.2675 -0.00768164 19.2227 0.00383542 15.9092C0.0052264 15.509 0.00663099 15.1049 0.00663099 14.6981C0.00663099 14.1974 0.0048572 13.7143 0.00314444 13.2477C-0.00985623 9.70664 -0.0193405 7.12334 0.777116 5.07949C2.78292 -0.0682858 7.7719 -0.0322626 13.2375 0.00720208C13.716 0.0106572 14.1982 0.0141387 14.6823 0.0141702ZM13.3733 2.66033C14.2079 2.65901 14.994 2.65161 15.7342 2.64463C26.1246 2.54677 27.4618 2.53418 26.6389 20.6267C26.3546 26.8509 22.0253 26.8033 16.4282 26.7419C15.8611 26.7357 15.2809 26.7293 14.6906 26.7293C2.99247 26.7293 2.65611 26.3946 2.65611 14.6915C2.65611 2.85254 3.584 2.66696 13.3733 2.65702L13.3733 2.66033ZM20.765 6.85906C20.765 5.88643 21.5537 5.09772 22.5263 5.09772C23.499 5.09772 24.2877 5.88643 24.2877 6.85906C24.2877 7.8317 23.499 8.62041 22.5263 8.62041C21.5537 8.62041 20.765 7.8317 20.765 6.85906ZM14.6889 7.15732C10.525 7.15732 7.14978 10.5342 7.14978 14.6981C7.14978 18.8621 10.525 22.2373 14.6889 22.2373C18.8529 22.2373 22.2264 18.8621 22.2264 14.6981C22.2264 10.5342 18.8529 7.15732 14.6889 7.15732ZM14.6889 19.5928C21.1676 19.5928 21.1594 9.80348 14.6889 9.80348C8.21023 9.80348 8.22017 19.5928 14.6889 19.5928Z" transform="translate(5.372476 5.29058)" id="Shape" fill="#FFFFFF" fill-rule="evenodd" stroke="none" />
  </g>
</svg>