<?xml version="1.0" encoding="utf-8"?>
<svg width="24px" height="24px" viewBox="0 0 24 24" version="1.1" xmlns:xlink="http://www.w3.org/1999/xlink" xmlns="http://www.w3.org/2000/svg">
  <desc>Created with Lunacy</desc>
  <g id="dropdown-bold">
    <path d="M1.999 0L22.001 0Q22.0992 0 22.1969 0.00962573Q22.2947 0.0192515 22.391 0.0384102Q22.4873 0.057569 22.5813 0.0860763Q22.6753 0.114584 22.766 0.152165Q22.8567 0.189746 22.9433 0.236039Q23.0299 0.282333 23.1116 0.336892Q23.1932 0.391452 23.2691 0.453752Q23.3451 0.516052 23.4145 0.585494Q23.4839 0.654935 23.5462 0.730848Q23.6085 0.806761 23.6631 0.888415Q23.7177 0.970069 23.764 1.05668Q23.8103 1.14329 23.8478 1.23402Q23.8854 1.32474 23.9139 1.41872Q23.9424 1.5127 23.9616 1.60901Q23.9807 1.70533 23.9904 1.80306Q24 1.9008 24 1.999L24 22.001Q24 22.0992 23.9904 22.1969Q23.9807 22.2947 23.9616 22.391Q23.9424 22.4873 23.9139 22.5813Q23.8854 22.6753 23.8478 22.766Q23.8103 22.8567 23.764 22.9433Q23.7177 23.0299 23.6631 23.1116Q23.6085 23.1932 23.5462 23.2691Q23.4839 23.3451 23.4145 23.4145Q23.3451 23.4839 23.2691 23.5462Q23.1932 23.6085 23.1116 23.6631Q23.0299 23.7177 22.9433 23.764Q22.8567 23.8103 22.766 23.8478Q22.6753 23.8854 22.5813 23.9139Q22.4873 23.9424 22.391 23.9616Q22.2947 23.9807 22.1969 23.9904Q22.0992 24 22.001 24L1.999 24Q1.9008 24 1.80306 23.9904Q1.70533 23.9807 1.60901 23.9616Q1.5127 23.9424 1.41872 23.9139Q1.32474 23.8854 1.23402 23.8478Q1.14329 23.8103 1.05668 23.764Q0.970069 23.7177 0.888415 23.6631Q0.806761 23.6085 0.730848 23.5462Q0.654935 23.4839 0.585494 23.4145Q0.516052 23.3451 0.453752 23.2691Q0.391452 23.1932 0.336892 23.1116Q0.282333 23.0299 0.236039 22.9433Q0.189746 22.8567 0.152165 22.766Q0.114584 22.6753 0.0860763 22.5813Q0.057569 22.4873 0.0384102 22.391Q0.0192515 22.2947 0.00962573 22.1969Q0 22.0992 0 22.001L0 1.999Q0 1.9008 0.00962573 1.80306Q0.0192515 1.70533 0.0384102 1.60901Q0.057569 1.5127 0.0860763 1.41872Q0.114584 1.32474 0.152165 1.23402Q0.189746 1.14329 0.236039 1.05668Q0.282333 0.970069 0.336892 0.888415Q0.391452 0.806761 0.453752 0.730848Q0.516052 0.654935 0.585494 0.585494Q0.654935 0.516052 0.730848 0.453752Q0.806761 0.391452 0.888415 0.336892Q0.970069 0.282333 1.05668 0.236039Q1.14329 0.189746 1.23402 0.152165Q1.32474 0.114584 1.41872 0.0860763Q1.5127 0.057569 1.60901 0.0384102Q1.70533 0.0192515 1.80306 0.00962573Q1.9008 0 1.999 0Z" id="Rectangle" fill="none" stroke="none" />
    <path d="M7.4 1.4L6 0L0 6L6 12L7.4 10.6L2.8 6L7.4 1.4Z" transform="matrix(-4.371139E-08 -1 1 -4.371139E-08 5.7 16.7)" id="Shape" fill="#ff805b" stroke="none" />
  </g>
</svg>