<?xml version="1.0" encoding="utf-8"?>
<svg width="98px" height="85px" viewBox="0 0 98 85" version="1.1" xmlns:xlink="http://www.w3.org/1999/xlink" xmlns="http://www.w3.org/2000/svg">
  <desc>Created with Lunacy</desc>
  <g id="5-wishlist" transform="translate(0.5 0.5)">
    <path d="M42 84C65.196 84 84 65.196 84 42C84 18.804 65.196 0 42 0C18.804 0 0 18.804 0 42C0 65.196 18.804 84 42 84Z" transform="translate(13 0)" id="Oval-Copy-24" fill="none" stroke="#898CD8" stroke-opacity="0.250372022" stroke-width="1" />
    <path d="M23 46C35.7025 46 46 35.7025 46 23C46 10.2975 35.7025 0 23 0C10.2975 0 0 10.2975 0 23C0 35.7025 10.2975 46 23 46Z" transform="translate(32 19)" id="Oval-Copy-28" fill="none" stroke="#898CD8" stroke-opacity="0.250372022" stroke-width="1" />
    <g id="friend-2" transform="translate(0 8)">
      <g id="friend">
        <path d="M2.51087 10.7728L0 10.7728L0 0L2.51087 0C3.84601 0 4.92833 1.07578 4.92833 2.40284L4.92833 8.36998C4.92833 9.69704 3.84601 10.7728 2.51087 10.7728Z" transform="translate(55.04575 19.32767)" id="Path" fill="#FF9E82" stroke="none" />
        <path d="M47.8611 68L4.23137 68C1.89447 68 0 66.117 0 63.7942L0 4.20577C-0.000133621 1.88302 1.89434 0 4.23137 0L47.8612 0C50.1981 0 52.0926 1.88302 52.0926 4.20577L52.0926 63.7941C52.0926 66.117 50.1981 68 47.8611 68Z" transform="translate(2.953185 0)" id="Path" fill="#FF805B" stroke="none" />
        <path d="M3.30364 0L7.59546e-15 0C2.33689 0 4.23137 1.88302 4.23137 4.20591L4.23137 63.7942C4.23137 66.117 2.33689 68.0001 0 68.0001L3.30364 68.0001C5.64053 68.0001 7.535 66.1171 7.535 63.7942L7.535 4.20591C7.53514 1.88302 5.64066 0 3.30364 0Z" transform="translate(47.51061 0)" id="Path" fill="#DF6643" stroke="none" />
        <g id="Group" transform="translate(0 11.28906)">
          <path d="M4.88551 2.99219L1.00216 2.99219C0.448698 2.99219 -1.99223e-14 2.32254 -1.99223e-14 1.49609C-1.99223e-14 0.669652 0.448698 0 1.00216 0L4.88551 0C5.43897 0 5.88766 0.669652 5.88766 1.49609C5.88766 2.32254 5.43897 2.99219 4.88551 2.99219Z" transform="translate(0.02592241 0.1132891)" id="Path" fill="#E6E6FF" stroke="none" />
          <path d="M4.88551 2.99219L1.00216 2.99219C0.448698 2.99219 -1.99223e-14 2.32254 -1.99223e-14 1.49609C-1.99223e-14 0.669652 0.448698 0 1.00216 0L4.88551 0C5.43897 0 5.88766 0.669652 5.88766 1.49609C5.88766 2.32254 5.43897 2.99219 4.88551 2.99219Z" transform="translate(0.02592241 10.914)" id="Path" fill="#E6E6FF" stroke="none" />
          <path d="M4.88551 2.99219L1.00216 2.99219C0.448698 2.99219 -1.99223e-14 2.32254 -1.99223e-14 1.49609C-1.99223e-14 0.669652 0.448698 0 1.00216 0L4.88551 0C5.43897 0 5.88766 0.669652 5.88766 1.49609C5.88766 2.32254 5.43897 2.99219 4.88551 2.99219Z" transform="translate(0.02592241 21.71484)" id="Path" fill="#E6E6FF" stroke="none" />
          <path d="M4.88551 2.99219L1.00216 2.99219C0.448698 2.99219 -1.99223e-14 2.32254 -1.99223e-14 1.49609C-1.99223e-14 0.669652 0.448698 0 1.00216 0L4.88551 0C5.43897 0 5.88766 0.669652 5.88766 1.49609C5.88766 2.32254 5.43897 2.99219 4.88551 2.99219Z" transform="translate(0.02592241 32.51569)" id="Path" fill="#E6E6FF" stroke="none" />
          <path d="M4.88551 2.99219L1.00216 2.99219C0.448698 2.99219 -1.99223e-14 2.32254 -1.99223e-14 1.49609C-1.99223e-14 0.669652 0.448698 0 1.00216 0L4.88551 0C5.43897 0 5.88766 0.669652 5.88766 1.49609C5.88766 2.32254 5.43897 2.99219 4.88551 2.99219Z" transform="translate(0.02592241 43.3164)" id="Path" fill="#E6E6FF" stroke="none" />
        </g>
        <path d="M2.51087 10.7728L0 10.7728L0 0L2.51087 0C3.84601 0 4.92833 1.07578 4.92833 2.40284L4.92833 8.36998C4.92833 9.69704 3.84601 10.7728 2.51087 10.7728Z" transform="translate(55.04575 9.480687)" id="Path" fill="#FFD2C5" stroke="none" />
        <path d="M2.5436 0L21.0816 0C22.4864 0 23.6252 1.13196 23.6252 2.52822L23.6252 23.7437C23.6252 25.1399 22.4864 26.2719 21.0816 26.2719L2.5436 26.2719C1.13885 26.2719 0 25.1399 0 23.7437L0 2.52809C0 1.13183 1.13885 0 2.5436 0Z" transform="translate(25.31367 31.6285)" id="Path" fill="#4548A1" stroke="none" />
        <path d="M11.9303 5.69566L0 5.69566L0 2.9155C0 1.30528 1.31322 0 2.93324 0L8.99695 0C10.617 0 11.9302 1.30528 11.9302 2.9155L11.9302 5.69566L11.9303 5.69566Z" transform="translate(31.16105 52.20474)" id="Path" fill="#2BB4F3" stroke="none" />
        <path d="M0 0L0 3.39203C0 3.48819 0.0335388 3.58142 0.0948707 3.6558L1.44377 5.29032C1.6112 5.49313 1.92347 5.49313 2.0909 5.29032L3.4398 3.6558C3.50113 3.58142 3.53467 3.48819 3.53467 3.39203L3.53467 0L0 0Z" transform="translate(35.35888 49.2753)" id="Path" fill="#F2A077" stroke="none" />
        <path d="M11.2513 6.53052L10.8851 6.53052L10.8851 4.1573C10.8851 1.86123 9.01258 0 6.70255 0L5.64868 0C3.33865 0 1.46609 1.86123 1.46609 4.1573L1.46609 6.53052L1.09997 6.53052C0.492392 6.53052 0 7.02007 0 7.62384L0 8.14087C0 8.74477 0.492526 9.23419 1.09997 9.23419L1.4729 9.23419C1.60131 11.7057 3.6576 13.6701 6.17555 13.6701C7.43452 13.6701 8.57791 13.1792 9.42293 12.3791C10.2679 11.5789 10.8137 10.4695 10.8783 9.23419L11.2513 9.23419C11.8588 9.23419 12.3512 8.74464 12.3512 8.14087L12.3512 7.6237C12.3512 7.02007 11.8587 6.53052 11.2513 6.53052Z" transform="translate(30.95059 37.42364)" id="Path" fill="#FFCCAA" stroke="none" />
        <path d="M0.000133621 7.54952e-15L6.5891 7.54952e-15C8.86052 7.54952e-15 10.7018 1.83016 10.7018 4.08784L10.7018 5.68557L2.71825 5.68557C1.21702 5.68557 0 4.47591 0 2.98377L0 0L0.000133621 0L0.000133621 7.54952e-15Z" transform="translate(31.13392 35.89537)" id="Path" fill="#BE6351" stroke="none" />
        <path d="M22.3868 1.99219L1.00216 1.99219C0.448698 1.99219 0 1.54634 0 0.996094C0 0.445852 0.448698 0 1.00216 0L22.3868 0C22.9403 0 23.389 0.445852 23.389 0.996094C23.389 1.54634 22.9403 1.99219 22.3868 1.99219Z" transform="translate(25.43166 61.85211)" id="Path" fill="#FF9C80" stroke="none" />
        <path d="M16.5654 0.123937L1.3552 5.62663C0.286773 6.01311 -0.264145 7.18744 0.124691 8.24941L4.10539 19.1201C4.49422 20.1821 5.6757 20.7297 6.74413 20.3432L21.9543 14.8406C23.0227 14.4541 23.5737 13.2798 23.1848 12.2178L19.2041 1.34701C18.8152 0.285039 17.6338 -0.262547 16.5654 0.123937Z" transform="translate(10.99806 3.413125)" id="Path" fill="#BDBEDC" stroke="none" />
        <path d="M9.77783 4.02606L4.97269 0.291643C4.17832 -0.32567 3.0078 0.0864474 2.78158 1.06315L0 13.0739L9.6251 9.59184C10.6935 9.20535 11.2444 8.03102 10.8556 6.96906L9.77783 4.02606Z" transform="translate(23.32727 8.661779)" id="Path" fill="#7D80E2" stroke="none" />
        <path d="M2.64863 0.609551L0 4.55607L0.815354 6.78254C1.20419 7.84451 2.38566 8.3921 3.4541 8.00561L15.6205 3.60421L4.20531 0.0623635C3.62166 -0.118793 2.98789 0.104067 2.64863 0.609551Z" transform="translate(14.28809 15.75069)" id="Path" fill="#4548A1" stroke="none" />
        <path d="M0.0325445 5.4163L1.1285 8.11305C1.22083 8.34043 1.48113 8.45027 1.70989 8.35836L13.6804 3.55241C13.9092 3.46063 14.0197 3.20191 13.9272 2.97454L12.8313 0.27778C12.7389 0.0504052 12.4786 -0.0594308 12.2499 0.0324755L0.279342 4.83843C0.050717 4.93034 -0.0596537 5.18905 0.0325445 5.4163Z" transform="translate(34.85585 18.28981)" id="Path" fill="#FFBAA5" stroke="none" />
        <path d="M4.02733 8.00594C6.25156 8.00594 8.05466 6.21375 8.05466 4.00297C8.05466 1.79219 6.25156 0 4.02733 0C1.8031 0 0 1.79219 0 4.00297C0 6.21375 1.8031 8.00594 4.02733 8.00594Z" transform="translate(12.08496 55.3443)" id="Oval" fill="#FF9C80" stroke="none" />
      </g>
    </g>
  </g>
</svg>