<?xml version="1.0" encoding="utf-8"?>
<svg width="105px" height="85px" viewBox="0 0 105 85" version="1.1" xmlns:xlink="http://www.w3.org/1999/xlink" xmlns="http://www.w3.org/2000/svg">
  <desc>Created with Lunacy</desc>
  <g id="5-stress-free" transform="translate(0.5 0.5)">
    <path d="M42 84C65.196 84 84 65.196 84 42C84 18.804 65.196 0 42 0C18.804 0 0 18.804 0 42C0 65.196 18.804 84 42 84Z" transform="translate(20 0)" id="Oval-Copy-24" fill="none" stroke="#898CD8" stroke-opacity="0.250372022" stroke-width="1" />
    <path d="M23 46C35.7025 46 46 35.7025 46 23C46 10.2975 35.7025 0 23 0C10.2975 0 0 10.2975 0 23C0 35.7025 10.2975 46 23 46Z" transform="translate(39 19)" id="Oval-Copy-28" fill="none" stroke="#898CD8" stroke-opacity="0.250372022" stroke-width="1" />
    <g id="laugh-2" transform="translate(0 3)">
      <g id="laugh">
        <path d="M5.05696 3.09197L5.93862 10.2309L2.55402 10.6441C0.959857 10.8386 -0.173707 12.2813 0.0219621 13.8663L0.0219621 13.8663C0.217631 15.4513 1.66868 16.5784 3.26284 16.3838L6.64745 15.9707L7.00829 18.8926C7.86712 25.8465 14.233 30.7914 21.2272 29.9377L21.2272 29.9377C28.2213 29.0838 33.1949 22.7545 32.3362 15.8006L30.3849 0L5.05696 3.09197Z" transform="translate(0.3304573 16.98465)" id="Path" fill="#FFCCAA" stroke="none" />
        <path d="M7.17817 0.488262L9.1295 16.2887C9.90467 22.5661 5.92631 28.3332 0 30.0242C0.663927 30.0474 1.33797 30.0209 2.01844 29.9377L2.01844 29.9377C9.01259 29.0838 13.9861 22.7545 13.1275 15.8006L11.1761 0L7.17817 0.488262Z" transform="translate(19.5392 16.9845)" id="Path" fill="#F2A077" stroke="none" />
        <g id="Group" transform="translate(11.95161 25.74609)">
          <path d="M1.14843 3.15394C0.900972 3.15394 0.651827 3.07488 0.441754 2.91172C-0.0583747 2.52324 -0.147092 1.80524 0.243633 1.30799C0.806279 0.591827 1.61592 0.136471 2.52317 0.0257171C3.43058 -0.0845798 4.32679 0.162217 5.04696 0.721623C5.54708 1.1101 5.6358 1.82825 5.24508 2.32535C4.8542 2.8226 4.13204 2.9108 3.63207 2.52233C3.39564 2.3386 3.10099 2.2574 2.80327 2.29381C2.5054 2.33022 2.23955 2.47967 2.05476 2.71489C1.82814 3.00297 1.48997 3.15394 1.14843 3.15394Z" transform="translate(0.01271341 1.535806)" id="Path" fill="#383B93" stroke="none" />
          <path d="M1.1484 3.15234C0.900942 3.15234 0.651797 3.07312 0.441724 2.91011C-0.0584046 2.52163 -0.147122 1.80348 0.243757 1.30623C1.40551 -0.172109 3.56033 -0.435054 5.04708 0.719864C5.54721 1.10834 5.63592 1.82634 5.2452 2.32359C4.85447 2.82084 4.13217 2.90904 3.63219 2.52057C3.14401 2.14123 2.43642 2.22761 2.05504 2.71313C1.82811 3.00167 1.48994 3.15234 1.1484 3.15234Z" transform="translate(12.16615 0.05358553)" id="Path" fill="#383B93" stroke="none" />
        </g>
        <path d="M4.63754 6.09955L4.63754 6.09955C2.42511 6.36965 0.41142 4.80539 0.139751 2.6057L0.00460545 1.51156C-0.0364591 1.17854 0.201654 0.875376 0.536606 0.834547L7.33554 0.00457894C7.67049 -0.0362492 7.97541 0.200493 8.01648 0.533516L8.15162 1.62765C8.42314 3.82734 6.84997 5.82959 4.63754 6.09955Z" transform="translate(18.49174 34.05629)" id="Path" fill="#AF5940" stroke="none" />
        <path d="M30.7369 18.3841L7.70169 21.196C6.43466 21.3507 5.53538 22.4969 5.69075 23.7551L6.1181 27.2154L2.73334 27.6286C2.47056 27.6607 2.22111 27.7264 1.98621 27.8225L0.0310499 11.9904C-0.245523 9.75046 1.3563 7.71195 3.60918 7.43696L20.9271 5.32289C24.8769 4.84057 28.507 3.01762 30.0665 0C39.2932 3.64787 36.8895 17.6329 30.7369 18.3841Z" transform="translate(0.1511355 0)" id="Path" fill="#5E61C4" stroke="none" />
        <path d="M3.30799 0C2.93596 0.719672 2.44518 1.37064 1.86139 1.95244C8.00789 6.92859 5.50586 18.1975 0 18.8696L3.97835 18.3839C10.131 17.6329 12.5346 3.64787 3.30799 0Z" transform="translate(26.90967 0)" id="Path" fill="#383B93" stroke="none" />
        <path d="M27.3756 3.09197L26.494 10.2309L29.8786 10.6441C31.4727 10.8386 32.6063 12.2813 32.4106 13.8663L32.4106 13.8663C32.215 15.4513 30.7639 16.5784 29.1698 16.3838L25.7852 15.9707L25.4243 18.8926C24.5655 25.8465 18.1996 30.7914 11.2054 29.9377L11.2054 29.9377C4.21127 29.0838 -0.762282 22.7545 0.0963953 15.8006L2.04773 0L27.3756 3.09197Z" transform="translate(43.23724 47.9665)" id="Path" fill="#FFCCAA" stroke="none" />
        <path d="M27.8307 10.6441L24.4461 10.2309L25.3278 3.09197L0 0L21.5751 2.63387L20.6934 9.77285L19.9846 15.5126L19.6238 18.4345C18.8069 25.0488 13.767 29.9345 8.14977 29.7703C8.4812 29.8374 8.81615 29.8959 9.15769 29.9377L9.15769 29.9377C16.1518 30.7916 22.5178 25.8465 23.3766 18.8926L23.7374 15.9707L27.122 16.3838C28.7162 16.5785 30.1671 15.4513 30.3629 13.8663C30.5584 12.2813 29.4249 10.8386 27.8307 10.6441Z" transform="translate(45.28512 47.96665)" id="Path" fill="#F2A077" stroke="none" />
        <g id="Group" transform="translate(46.27419 56.67188)">
          <path d="M4.34028 3.15229C3.99859 3.15229 3.66057 3.00147 3.4338 2.71308C3.05242 2.22772 2.34497 2.14134 1.85664 2.52052C1.35651 2.90884 0.634206 2.82079 0.243633 2.32354C-0.147092 1.82629 -0.0583747 1.10829 0.441754 0.719817C1.92881 -0.435101 4.08347 -0.172003 5.24508 1.30619C5.6358 1.80344 5.54709 2.52159 5.04711 2.91006C4.83704 3.07307 4.58774 3.15229 4.34028 3.15229Z" transform="translate(12.27308 1.593523)" id="Path" fill="#383B93" stroke="none" />
          <path d="M4.34043 3.1542C3.99874 3.1542 3.66057 3.00338 3.43395 2.71499C3.24916 2.47992 2.98346 2.33032 2.68544 2.29391C2.38757 2.25735 2.09322 2.33855 1.85664 2.52243C1.35636 2.9109 0.634206 2.8227 0.243633 2.32545C-0.147092 1.8282 -0.0583747 1.1102 0.441754 0.721725C1.16192 0.162319 2.05813 -0.0847828 2.96554 0.0258187C3.87279 0.136573 4.68243 0.591928 5.24508 1.3081C5.6358 1.80535 5.54708 2.52334 5.04696 2.91182C4.83719 3.07513 4.58789 3.1542 4.34043 3.1542Z" transform="translate(0.1195118 0.1079391)" id="Path" fill="#383B93" stroke="none" />
        </g>
        <path d="M3.54455 6.09955L3.54455 6.09955C5.75698 6.36966 7.77067 4.80539 8.04234 2.6057L8.17749 1.51156C8.21855 1.17854 7.98044 0.875376 7.64549 0.834548L0.846552 0.00457894C0.511601 -0.0362492 0.206681 0.200493 0.165617 0.533517L0.0304717 1.62765C-0.241044 3.82734 1.33213 5.82944 3.54455 6.09955Z" transform="translate(49.32647 65.03828)" id="Path" fill="#AF5940" stroke="none" />
        <path d="M35.1453 7.13905L18.8774 5.15325C17.9377 5.03853 17.0913 4.53656 16.5378 3.77286C15.0187 1.67692 12.6097 0.228281 9.77949 0.0236832C5.09967 -0.314672 0.871709 3.00962 0.120136 7.61452C-0.714485 12.7285 2.89383 17.4609 8.01739 18.0863L31.0526 20.8984C32.3187 21.0531 33.2191 22.1987 33.0635 23.4575L32.6362 26.9178L36.0209 27.331C36.2837 27.3631 36.5332 27.4288 36.7681 27.5249L38.7232 11.6926C39 9.45269 37.398 7.41418 35.1453 7.13905Z" transform="translate(37.09473 31.27976)" id="Path" fill="#BE6351" stroke="none" />
        <path d="M2.94347 0.359379L0 0C2.25273 0.27498 3.8547 2.31364 3.57813 4.5534L1.63538 20.2846L3.81915 20.5512C4.08193 20.5833 4.33139 20.649 4.56628 20.7451L6.52144 4.91278C6.79817 2.67302 5.19619 0.634512 2.94347 0.359379Z" transform="translate(69.29652 38.05943)" id="Path" fill="#AA473A" stroke="none" />
        <g id="Group" transform="translate(9.653226 54.68359)">
          <path d="M1.14919 5.16643C0.514532 5.16643 0 4.65486 0 4.02386L0 1.14258C0 0.51157 0.514532 0 1.14919 0C1.78385 0 2.29839 0.51157 2.29839 1.14258L2.29839 4.02386C2.29839 4.65486 1.78385 5.16643 1.14919 5.16643Z" transform="translate(6.048282 0.5614297)" id="Path" fill="#DADBFF" fill-opacity="0.2482794" stroke="none" />
          <path d="M1.14919 5.16643C0.514532 5.16643 0 4.65486 0 4.02386L0 1.14258C0 0.51157 0.514532 0 1.14919 0C1.78385 0 2.29839 0.51157 2.29839 1.14258L2.29839 4.02386C2.29839 4.65486 1.78385 5.16643 1.14919 5.16643Z" transform="translate(6.048282 9.418848)" id="Path" fill="#DADBFF" fill-opacity="0.2482794" stroke="none" />
          <path d="M4.04715 2.28516L1.14919 2.28516C0.514532 2.28516 0 1.77359 0 1.14258C0 0.51157 0.514532 0 1.14919 0L4.04715 0C4.68181 0 5.19635 0.51157 5.19635 1.14258C5.19635 1.77359 4.68181 2.28516 4.04715 2.28516Z" transform="translate(9.053653 6.430778)" id="Path" fill="#DADBFF" fill-opacity="0.2482794" stroke="none" />
          <path d="M4.04715 2.28516L1.14919 2.28516C0.514532 2.28516 0 1.77359 0 1.14258C0 0.51157 0.514532 0 1.14919 0L4.04715 0C4.68181 0 5.19635 0.51157 5.19635 1.14258C5.19635 1.77359 4.68181 2.28516 4.04715 2.28516Z" transform="translate(0.1449516 6.430778)" id="Path" fill="#DADBFF" fill-opacity="0.2482794" stroke="none" />
        </g>
      </g>
    </g>
  </g>
</svg>