<?xml version="1.0" encoding="utf-8"?>
<svg width="25px" height="28px" viewBox="0 0 25 28" version="1.1" xmlns:xlink="http://www.w3.org/1999/xlink" xmlns="http://www.w3.org/2000/svg">
  <desc>Created with Lunacy</desc>
  <g id="9-google-play">
    <path d="M11.3166 2.73863L6.54182 0L0 4.85429L6.54171 9.70858L11.3328 6.96054C12.0798 6.50982 12.5256 5.72222 12.5256 4.8544C12.5256 3.98659 12.0798 3.19904 11.3166 2.73863Z" transform="translate(12.43756 9.162051)" id="Path" fill="#FFC4B3" stroke="none" />
    <path d="M14.0584 13.3179C14.0512 13.3271 8.27431 20.7034 8.26962 20.7094L0.744266 26.5952C0.281112 26.1353 0 25.5112 0 24.8212L0 1.7739C0 1.08408 0.281112 0.45986 0.744266 0L8.26962 5.92644C8.27431 5.93241 14.0512 13.3088 14.0584 13.3179Z" transform="translate(0.03313361 0.698523)" id="Path" fill="#FFFFFF" stroke="none" />
    <path d="M18.2098 9.15442L13.3141 14.0164L0 0.698552C0.165337 0.550668 0.330785 0.435689 0.512716 0.32071C1.30654 -0.122724 2.24934 -0.106353 3.02674 0.370042L11.6602 5.40945L18.2098 9.15442Z" transform="translate(0.7773993 2.541922E-05)" id="Path" fill="#FFDBD1" stroke="none" />
    <path d="M18.2098 4.8619L11.6602 8.60698L3.0102 13.6222C2.61325 13.8521 2.18323 13.9835 1.73662 13.9835C1.32314 13.9835 0.909658 13.8686 0.512716 13.655C0.330785 13.5401 0.165337 13.4251 0 13.2773L13.3141 0L18.2098 4.8619Z" transform="translate(0.7773993 14.01645)" id="Path" fill="#FFDBD1" stroke="none" />
  </g>
</svg>