<?xml version="1.0" encoding="utf-8"?>
<svg width="233px" height="117px" viewBox="0 0 233 117" version="1.1" xmlns:xlink="http://www.w3.org/1999/xlink" xmlns="http://www.w3.org/2000/svg">
  <desc>Created with Lunacy</desc>
  <path d="M-7.08851e-15 0L-3.54413e-15 28.001Q-3.45713e-15 28.6883 0.033726 29.3748Q0.067452 30.0614 0.134823 30.7454Q0.202194 31.4294 0.303047 32.1093Q0.4039 32.7892 0.537993 33.4633Q0.672086 34.1375 0.839095 34.8042Q1.0061 35.4709 1.20563 36.1287Q1.40515 36.7864 1.63671 37.4336Q1.86826 38.0807 2.1313 38.7157Q2.39433 39.3508 2.6882 39.9721Q2.98208 40.5935 3.30609 41.1996Q3.6301 41.8058 3.98346 42.3954Q4.33682 42.9849 4.71868 43.5564Q5.10055 44.1279 5.50999 44.68Q5.91944 45.2321 6.35548 45.7634Q6.79152 46.2947 7.25311 46.804Q7.7147 47.3133 8.20072 47.7993Q8.68674 48.2853 9.19602 48.7469Q9.7053 49.2085 10.2366 49.6445Q10.7679 50.0806 11.32 50.49Q11.8721 50.8994 12.4436 51.2813Q13.0151 51.6632 13.6046 52.0165Q14.1942 52.3699 14.8004 52.6939Q15.4065 53.0179 16.0279 53.3118Q16.6492 53.6057 17.2842 53.8687Q17.9193 54.1317 18.5664 54.3633Q19.2136 54.5948 19.8713 54.7944Q20.5291 54.9939 21.1958 55.1609Q21.8625 55.3279 22.5367 55.462Q23.2108 55.5961 23.8907 55.6969Q24.5706 55.7978 25.2546 55.8652Q25.9386 55.9325 26.6252 55.9663Q27.3117 56 27.999 56L201.001 56Q201.713 56 202.424 56.0349Q203.135 56.0699 203.843 56.1396Q204.552 56.2094 205.256 56.3139Q205.96 56.4183 206.658 56.5572Q207.357 56.6961 208.047 56.8691Q208.738 57.042 209.419 57.2487Q210.1 57.4553 210.77 57.6952Q211.441 57.935 212.098 58.2074Q212.756 58.4798 213.4 58.7842Q214.043 59.0886 214.671 59.4242Q215.299 59.7597 215.909 60.1257Q216.52 60.4917 217.112 60.8872Q217.704 61.2827 218.276 61.7068Q218.847 62.1308 219.398 62.5825Q219.948 63.0341 220.476 63.5121Q221.003 63.9902 221.506 64.4936Q222.01 64.997 222.488 65.5244Q222.966 66.0519 223.418 66.6022Q223.869 67.1525 224.293 67.7243Q224.717 68.2961 225.113 68.888Q225.508 69.4799 225.874 70.0905Q226.24 70.7011 226.576 71.329Q226.911 71.9568 227.216 72.6003Q227.52 73.2439 227.793 73.9016Q228.065 74.5592 228.305 75.2295Q228.545 75.8998 228.751 76.581Q228.958 77.2623 229.131 77.9528Q229.304 78.6434 229.443 79.3416Q229.582 80.0398 229.686 80.744Q229.791 81.4481 229.86 82.1566Q229.93 82.8651 229.965 83.5761Q230 84.2871 230 84.999L230 114" transform="translate(1.5 1.5)" id="arrow" fill="none" stroke="#B2B4FF" stroke-opacity="0.197079614" stroke-width="3" stroke-linecap="round" stroke-dasharray="5 10" />
</svg>